<?xml version="1.0" encoding="utf-8" standalone="no"?>
<!DOCTYPE svg PUBLIC "-//W3C//DTD SVG 1.1//EN"
  "http://www.w3.org/Graphics/SVG/1.1/DTD/svg11.dtd">
<!-- Created with matplotlib (https://matplotlib.org/) -->
<svg height="648pt" version="1.1" viewBox="0 0 733.647432 648" width="733.647432pt" xmlns="http://www.w3.org/2000/svg" xmlns:xlink="http://www.w3.org/1999/xlink">
 <defs>
  <style type="text/css">
*{stroke-linecap:butt;stroke-linejoin:round;}
  </style>
 </defs>
 <g id="figure_1">
  <g id="patch_1">
   <path d="M 0 648 
L 733.647432 648 
L 733.647432 0 
L 0 0 
z
" style="fill:#ffffff;"/>
  </g>
  <g id="axes_1">
   <g id="patch_2">
    <path d="M 74.819584 243 
L 231.998457 243 
L 231.998457 129.6 
L 74.819584 129.6 
z
" style="fill:#ffffff;"/>
   </g>
   <g id="matplotlib.axis_1">
    <g id="xtick_1">
     <g id="line2d_1">
      <path clip-path="url(#p3ef1b8b047)" d="M 95.440872 243 
L 95.440872 129.6 
" style="fill:none;stroke:#cccccc;stroke-linecap:round;"/>
     </g>
    </g>
    <g id="xtick_2">
     <g id="line2d_2">
      <path clip-path="url(#p3ef1b8b047)" d="M 148.914204 243 
L 148.914204 129.6 
" style="fill:none;stroke:#cccccc;stroke-linecap:round;"/>
     </g>
    </g>
    <g id="xtick_3">
     <g id="line2d_3">
      <path clip-path="url(#p3ef1b8b047)" d="M 202.387535 243 
L 202.387535 129.6 
" style="fill:none;stroke:#cccccc;stroke-linecap:round;"/>
     </g>
    </g>
   </g>
   <g id="matplotlib.axis_2">
    <g id="ytick_1">
     <g id="line2d_4">
      <path clip-path="url(#p3ef1b8b047)" d="M 74.819584 224.649346 
L 231.998457 224.649346 
" style="fill:none;stroke:#cccccc;stroke-linecap:round;"/>
     </g>
     <g id="text_1">
      <!-- −0.5 -->
      <defs>
       <path d="M 10.59375 35.5 
L 73.1875 35.5 
L 73.1875 27.203125 
L 10.59375 27.203125 
z
" id="DejaVuSans-8722"/>
       <path d="M 31.78125 66.40625 
Q 24.171875 66.40625 20.328125 58.90625 
Q 16.5 51.421875 16.5 36.375 
Q 16.5 21.390625 20.328125 13.890625 
Q 24.171875 6.390625 31.78125 6.390625 
Q 39.453125 6.390625 43.28125 13.890625 
Q 47.125 21.390625 47.125 36.375 
Q 47.125 51.421875 43.28125 58.90625 
Q 39.453125 66.40625 31.78125 66.40625 
z
M 31.78125 74.21875 
Q 44.046875 74.21875 50.515625 64.515625 
Q 56.984375 54.828125 56.984375 36.375 
Q 56.984375 17.96875 50.515625 8.265625 
Q 44.046875 -1.421875 31.78125 -1.421875 
Q 19.53125 -1.421875 13.0625 8.265625 
Q 6.59375 17.96875 6.59375 36.375 
Q 6.59375 54.828125 13.0625 64.515625 
Q 19.53125 74.21875 31.78125 74.21875 
z
" id="DejaVuSans-48"/>
       <path d="M 10.6875 12.40625 
L 21 12.40625 
L 21 0 
L 10.6875 0 
z
" id="DejaVuSans-46"/>
       <path d="M 10.796875 72.90625 
L 49.515625 72.90625 
L 49.515625 64.59375 
L 19.828125 64.59375 
L 19.828125 46.734375 
Q 21.96875 47.46875 24.109375 47.828125 
Q 26.265625 48.1875 28.421875 48.1875 
Q 40.625 48.1875 47.75 41.5 
Q 54.890625 34.8125 54.890625 23.390625 
Q 54.890625 11.625 47.5625 5.09375 
Q 40.234375 -1.421875 26.90625 -1.421875 
Q 22.3125 -1.421875 17.546875 -0.640625 
Q 12.796875 0.140625 7.71875 1.703125 
L 7.71875 11.625 
Q 12.109375 9.234375 16.796875 8.0625 
Q 21.484375 6.890625 26.703125 6.890625 
Q 35.15625 6.890625 40.078125 11.328125 
Q 45.015625 15.765625 45.015625 23.390625 
Q 45.015625 31 40.078125 35.4375 
Q 35.15625 39.890625 26.703125 39.890625 
Q 22.75 39.890625 18.8125 39.015625 
Q 14.890625 38.140625 10.796875 36.28125 
z
" id="DejaVuSans-53"/>
      </defs>
      <g style="fill:#262626;" transform="translate(38.60849 228.828487)scale(0.11 -0.11)">
       <use xlink:href="#DejaVuSans-8722"/>
       <use x="83.789062" xlink:href="#DejaVuSans-48"/>
       <use x="147.412109" xlink:href="#DejaVuSans-46"/>
       <use x="179.199219" xlink:href="#DejaVuSans-53"/>
      </g>
     </g>
    </g>
    <g id="ytick_2">
     <g id="line2d_5">
      <path clip-path="url(#p3ef1b8b047)" d="M 74.819584 179.550128 
L 231.998457 179.550128 
" style="fill:none;stroke:#cccccc;stroke-linecap:round;"/>
     </g>
     <g id="text_2">
      <!-- 0.0 -->
      <g style="fill:#262626;" transform="translate(47.826147 183.729269)scale(0.11 -0.11)">
       <use xlink:href="#DejaVuSans-48"/>
       <use x="63.623047" xlink:href="#DejaVuSans-46"/>
       <use x="95.410156" xlink:href="#DejaVuSans-48"/>
      </g>
     </g>
    </g>
    <g id="ytick_3">
     <g id="line2d_6">
      <path clip-path="url(#p3ef1b8b047)" d="M 74.819584 134.450911 
L 231.998457 134.450911 
" style="fill:none;stroke:#cccccc;stroke-linecap:round;"/>
     </g>
     <g id="text_3">
      <!-- 0.5 -->
      <g style="fill:#262626;" transform="translate(47.826147 138.630051)scale(0.11 -0.11)">
       <use xlink:href="#DejaVuSans-48"/>
       <use x="63.623047" xlink:href="#DejaVuSans-46"/>
       <use x="95.410156" xlink:href="#DejaVuSans-53"/>
      </g>
     </g>
    </g>
    <g id="text_4">
     <!-- $\rho_p$ -->
     <defs>
      <path d="M 18.796875 44.921875 
Q 22.703125 49.90625 30.953125 54.296875 
Q 34.1875 56 43.0625 56 
Q 53.03125 56 57.71875 48.09375 
Q 62.40625 40.1875 59.90625 27.296875 
Q 57.375 14.40625 49.609375 6.484375 
Q 41.84375 -1.421875 31.890625 -1.421875 
Q 25.875 -1.421875 22.015625 0.984375 
Q 18.171875 3.328125 16.3125 8.203125 
L 10.640625 -20.796875 
L 1.609375 -20.796875 
L 10.890625 26.8125 
Q 13.09375 38.09375 18.796875 44.921875 
z
M 50.59375 27.296875 
Q 52.484375 37.203125 49.515625 42.875 
Q 46.53125 48.484375 39.40625 48.484375 
Q 32.28125 48.484375 27.09375 42.875 
Q 21.921875 37.203125 20.015625 27.296875 
Q 18.0625 17.390625 21.046875 11.71875 
Q 24.03125 6.109375 31.15625 6.109375 
Q 38.28125 6.109375 43.453125 11.71875 
Q 48.640625 17.390625 50.59375 27.296875 
z
" id="DejaVuSans-Oblique-961"/>
      <path d="M 49.609375 33.6875 
Q 49.609375 40.875 46.484375 44.671875 
Q 43.359375 48.484375 37.5 48.484375 
Q 33.5 48.484375 29.859375 46.4375 
Q 26.21875 44.390625 23.390625 40.484375 
Q 20.609375 36.625 18.9375 31.15625 
Q 17.28125 25.6875 17.28125 20.3125 
Q 17.28125 13.484375 20.40625 9.796875 
Q 23.53125 6.109375 29.296875 6.109375 
Q 33.546875 6.109375 37.1875 8.109375 
Q 40.828125 10.109375 43.40625 13.921875 
Q 46.1875 17.921875 47.890625 23.34375 
Q 49.609375 28.765625 49.609375 33.6875 
z
M 21.78125 46.390625 
Q 25.390625 51.125 30.296875 53.5625 
Q 35.203125 56 41.21875 56 
Q 49.609375 56 54.25 50.5 
Q 58.890625 45.015625 58.890625 35.109375 
Q 58.890625 27 56 19.65625 
Q 53.125 12.3125 47.703125 6.5 
Q 44.09375 2.640625 39.546875 0.609375 
Q 35.015625 -1.421875 29.984375 -1.421875 
Q 24.171875 -1.421875 20.21875 1 
Q 16.265625 3.421875 14.3125 8.203125 
L 8.6875 -20.796875 
L -0.296875 -20.796875 
L 14.40625 54.6875 
L 23.390625 54.6875 
z
" id="DejaVuSans-Oblique-112"/>
     </defs>
     <g style="fill:#262626;" transform="translate(30.88849 192.96)rotate(-90)scale(0.12 -0.12)">
      <use xlink:href="#DejaVuSans-Oblique-961"/>
      <use transform="translate(63.476562 -16.40625)scale(0.7)" xlink:href="#DejaVuSans-Oblique-112"/>
     </g>
    </g>
   </g>
   <g id="PathCollection_1">
    <path clip-path="url(#p3ef1b8b047)" d="M 180.998203 220.260139 
C 181.793812 220.260139 182.556942 219.94404 183.119523 219.38146 
C 183.682104 218.818879 183.998203 218.055749 183.998203 217.260139 
C 183.998203 216.46453 183.682104 215.7014 183.119523 215.138819 
C 182.556942 214.576238 181.793812 214.260139 180.998203 214.260139 
C 180.202593 214.260139 179.439463 214.576238 178.876882 215.138819 
C 178.314302 215.7014 177.998203 216.46453 177.998203 217.260139 
C 177.998203 218.055749 178.314302 218.818879 178.876882 219.38146 
C 179.439463 219.94404 180.202593 220.260139 180.998203 220.260139 
z
" style="fill:#4c72b0;stroke:#ffffff;stroke-width:0.75;"/>
    <path clip-path="url(#p3ef1b8b047)" d="M 170.303536 200.709986 
L 173.303536 194.709986 
L 167.303536 194.709986 
z
" style="fill:#4c72b0;stroke:#ffffff;stroke-width:0.75;"/>
    <path clip-path="url(#p3ef1b8b047)" d="M 207.734869 172.746711 
L 204.734869 178.746711 
L 210.734869 178.746711 
z
" style="fill:#4c72b0;stroke:#ffffff;stroke-width:0.75;"/>
   </g>
   <g id="PathCollection_2"/>
   <g id="PathCollection_3"/>
   <g id="PathCollection_4"/>
   <g id="PathCollection_5"/>
   <g id="PathCollection_6">
    <path clip-path="url(#p3ef1b8b047)" d="M 180.998203 206.922327 
C 181.793812 206.922327 182.556942 206.606228 183.119523 206.043647 
C 183.682104 205.481067 183.998203 204.717936 183.998203 203.922327 
C 183.998203 203.126718 183.682104 202.363587 183.119523 201.801007 
C 182.556942 201.238426 181.793812 200.922327 180.998203 200.922327 
C 180.202593 200.922327 179.439463 201.238426 178.876882 201.801007 
C 178.314302 202.363587 177.998203 203.126718 177.998203 203.922327 
C 177.998203 204.717936 178.314302 205.481067 178.876882 206.043647 
C 179.439463 206.606228 180.202593 206.922327 180.998203 206.922327 
z
" style="fill:#dd8452;stroke:#ffffff;stroke-width:0.75;"/>
    <path clip-path="url(#p3ef1b8b047)" d="M 170.303536 200.088042 
L 173.303536 194.088042 
L 167.303536 194.088042 
z
" style="fill:#dd8452;stroke:#ffffff;stroke-width:0.75;"/>
    <path clip-path="url(#p3ef1b8b047)" d="M 207.734869 175.613552 
L 204.734869 181.613552 
L 210.734869 181.613552 
z
" style="fill:#dd8452;stroke:#ffffff;stroke-width:0.75;"/>
   </g>
   <g id="PathCollection_7"/>
   <g id="PathCollection_8"/>
   <g id="PathCollection_9"/>
   <g id="PathCollection_10"/>
   <g id="PathCollection_11">
    <path clip-path="url(#p3ef1b8b047)" d="M 180.998203 218.716733 
C 181.793812 218.716733 182.556942 218.400634 183.119523 217.838053 
C 183.682104 217.275472 183.998203 216.512342 183.998203 215.716733 
C 183.998203 214.921124 183.682104 214.157993 183.119523 213.595412 
C 182.556942 213.032832 181.793812 212.716733 180.998203 212.716733 
C 180.202593 212.716733 179.439463 213.032832 178.876882 213.595412 
C 178.314302 214.157993 177.998203 214.921124 177.998203 215.716733 
C 177.998203 216.512342 178.314302 217.275472 178.876882 217.838053 
C 179.439463 218.400634 180.202593 218.716733 180.998203 218.716733 
z
" style="fill:#55a868;stroke:#ffffff;stroke-width:0.75;"/>
    <path clip-path="url(#p3ef1b8b047)" d="M 170.303536 201.356295 
L 173.303536 195.356295 
L 167.303536 195.356295 
z
" style="fill:#55a868;stroke:#ffffff;stroke-width:0.75;"/>
    <path clip-path="url(#p3ef1b8b047)" d="M 207.734869 176.084655 
L 204.734869 182.084655 
L 210.734869 182.084655 
z
" style="fill:#55a868;stroke:#ffffff;stroke-width:0.75;"/>
   </g>
   <g id="PathCollection_12"/>
   <g id="PathCollection_13"/>
   <g id="PathCollection_14"/>
   <g id="PathCollection_15"/>
   <g id="patch_3">
    <path d="M 74.819584 243 
L 74.819584 129.6 
" style="fill:none;stroke:#cccccc;stroke-linecap:square;stroke-linejoin:miter;stroke-width:1.25;"/>
   </g>
   <g id="patch_4">
    <path d="M 74.819584 243 
L 231.998457 243 
" style="fill:none;stroke:#cccccc;stroke-linecap:square;stroke-linejoin:miter;stroke-width:1.25;"/>
   </g>
   <g id="text_5">
    <!-- ACEA -->
    <defs>
     <path d="M 34.1875 63.1875 
L 20.796875 26.90625 
L 47.609375 26.90625 
z
M 28.609375 72.90625 
L 39.796875 72.90625 
L 67.578125 0 
L 57.328125 0 
L 50.6875 18.703125 
L 17.828125 18.703125 
L 11.1875 0 
L 0.78125 0 
z
" id="DejaVuSans-65"/>
     <path d="M 64.40625 67.28125 
L 64.40625 56.890625 
Q 59.421875 61.53125 53.78125 63.8125 
Q 48.140625 66.109375 41.796875 66.109375 
Q 29.296875 66.109375 22.65625 58.46875 
Q 16.015625 50.828125 16.015625 36.375 
Q 16.015625 21.96875 22.65625 14.328125 
Q 29.296875 6.6875 41.796875 6.6875 
Q 48.140625 6.6875 53.78125 8.984375 
Q 59.421875 11.28125 64.40625 15.921875 
L 64.40625 5.609375 
Q 59.234375 2.09375 53.4375 0.328125 
Q 47.65625 -1.421875 41.21875 -1.421875 
Q 24.65625 -1.421875 15.125 8.703125 
Q 5.609375 18.84375 5.609375 36.375 
Q 5.609375 53.953125 15.125 64.078125 
Q 24.65625 74.21875 41.21875 74.21875 
Q 47.75 74.21875 53.53125 72.484375 
Q 59.328125 70.75 64.40625 67.28125 
z
" id="DejaVuSans-67"/>
     <path d="M 9.8125 72.90625 
L 55.90625 72.90625 
L 55.90625 64.59375 
L 19.671875 64.59375 
L 19.671875 43.015625 
L 54.390625 43.015625 
L 54.390625 34.71875 
L 19.671875 34.71875 
L 19.671875 8.296875 
L 56.78125 8.296875 
L 56.78125 0 
L 9.8125 0 
z
" id="DejaVuSans-69"/>
    </defs>
    <g style="fill:#262626;" transform="translate(137.22027 123.6)scale(0.12 -0.12)">
     <use xlink:href="#DejaVuSans-65"/>
     <use x="68.392578" xlink:href="#DejaVuSans-67"/>
     <use x="138.216797" xlink:href="#DejaVuSans-69"/>
     <use x="201.400391" xlink:href="#DejaVuSans-65"/>
    </g>
   </g>
  </g>
  <g id="axes_2">
   <g id="patch_5">
    <path d="M 279.152119 243 
L 436.330991 243 
L 436.330991 129.6 
L 279.152119 129.6 
z
" style="fill:#ffffff;"/>
   </g>
   <g id="matplotlib.axis_3">
    <g id="xtick_4">
     <g id="line2d_7">
      <path clip-path="url(#p6235dc0508)" d="M 299.773406 243 
L 299.773406 129.6 
" style="fill:none;stroke:#cccccc;stroke-linecap:round;"/>
     </g>
    </g>
    <g id="xtick_5">
     <g id="line2d_8">
      <path clip-path="url(#p6235dc0508)" d="M 353.246738 243 
L 353.246738 129.6 
" style="fill:none;stroke:#cccccc;stroke-linecap:round;"/>
     </g>
    </g>
    <g id="xtick_6">
     <g id="line2d_9">
      <path clip-path="url(#p6235dc0508)" d="M 406.72007 243 
L 406.72007 129.6 
" style="fill:none;stroke:#cccccc;stroke-linecap:round;"/>
     </g>
    </g>
   </g>
   <g id="matplotlib.axis_4">
    <g id="ytick_4">
     <g id="line2d_10">
      <path clip-path="url(#p6235dc0508)" d="M 279.152119 224.649346 
L 436.330991 224.649346 
" style="fill:none;stroke:#cccccc;stroke-linecap:round;"/>
     </g>
    </g>
    <g id="ytick_5">
     <g id="line2d_11">
      <path clip-path="url(#p6235dc0508)" d="M 279.152119 179.550128 
L 436.330991 179.550128 
" style="fill:none;stroke:#cccccc;stroke-linecap:round;"/>
     </g>
    </g>
    <g id="ytick_6">
     <g id="line2d_12">
      <path clip-path="url(#p6235dc0508)" d="M 279.152119 134.450911 
L 436.330991 134.450911 
" style="fill:none;stroke:#cccccc;stroke-linecap:round;"/>
     </g>
    </g>
   </g>
   <g id="PathCollection_16">
    <path clip-path="url(#p6235dc0508)" d="M 385.330737 210.969146 
C 386.126347 210.969146 386.889477 210.653047 387.452058 210.090467 
C 388.014638 209.527886 388.330737 208.764756 388.330737 207.969146 
C 388.330737 207.173537 388.014638 206.410407 387.452058 205.847826 
C 386.889477 205.285245 386.126347 204.969146 385.330737 204.969146 
C 384.535128 204.969146 383.771998 205.285245 383.209417 205.847826 
C 382.646836 206.410407 382.330737 207.173537 382.330737 207.969146 
C 382.330737 208.764756 382.646836 209.527886 383.209417 210.090467 
C 383.771998 210.653047 384.535128 210.969146 385.330737 210.969146 
z
" style="fill:#4c72b0;stroke:#ffffff;stroke-width:0.75;"/>
    <path clip-path="url(#p6235dc0508)" d="M 374.636071 217.498175 
L 377.636071 211.498175 
L 371.636071 211.498175 
z
" style="fill:#4c72b0;stroke:#ffffff;stroke-width:0.75;"/>
    <path clip-path="url(#p6235dc0508)" d="M 406.72007 221.964758 
L 403.72007 227.964758 
L 409.72007 227.964758 
z
" style="fill:#4c72b0;stroke:#ffffff;stroke-width:0.75;"/>
   </g>
   <g id="PathCollection_17"/>
   <g id="PathCollection_18"/>
   <g id="PathCollection_19"/>
   <g id="PathCollection_20"/>
   <g id="PathCollection_21">
    <path clip-path="url(#p6235dc0508)" d="M 385.330737 209.733008 
C 386.126347 209.733008 386.889477 209.416909 387.452058 208.854328 
C 388.014638 208.291748 388.330737 207.528617 388.330737 206.733008 
C 388.330737 205.937399 388.014638 205.174268 387.452058 204.611688 
C 386.889477 204.049107 386.126347 203.733008 385.330737 203.733008 
C 384.535128 203.733008 383.771998 204.049107 383.209417 204.611688 
C 382.646836 205.174268 382.330737 205.937399 382.330737 206.733008 
C 382.330737 207.528617 382.646836 208.291748 383.209417 208.854328 
C 383.771998 209.416909 384.535128 209.733008 385.330737 209.733008 
z
" style="fill:#dd8452;stroke:#ffffff;stroke-width:0.75;"/>
    <path clip-path="url(#p6235dc0508)" d="M 374.636071 224.499882 
L 377.636071 218.499882 
L 371.636071 218.499882 
z
" style="fill:#dd8452;stroke:#ffffff;stroke-width:0.75;"/>
    <path clip-path="url(#p6235dc0508)" d="M 406.72007 214.610418 
L 403.72007 220.610418 
L 409.72007 220.610418 
z
" style="fill:#dd8452;stroke:#ffffff;stroke-width:0.75;"/>
   </g>
   <g id="PathCollection_22"/>
   <g id="PathCollection_23"/>
   <g id="PathCollection_24"/>
   <g id="PathCollection_25"/>
   <g id="PathCollection_26">
    <path clip-path="url(#p6235dc0508)" d="M 385.330737 193.018303 
C 386.126347 193.018303 386.889477 192.702204 387.452058 192.139624 
C 388.014638 191.577043 388.330737 190.813912 388.330737 190.018303 
C 388.330737 189.222694 388.014638 188.459564 387.452058 187.896983 
C 386.889477 187.334402 386.126347 187.018303 385.330737 187.018303 
C 384.535128 187.018303 383.771998 187.334402 383.209417 187.896983 
C 382.646836 188.459564 382.330737 189.222694 382.330737 190.018303 
C 382.330737 190.813912 382.646836 191.577043 383.209417 192.139624 
C 383.771998 192.702204 384.535128 193.018303 385.330737 193.018303 
z
" style="fill:#55a868;stroke:#ffffff;stroke-width:0.75;"/>
    <path clip-path="url(#p6235dc0508)" d="M 374.636071 179.105422 
L 377.636071 173.105422 
L 371.636071 173.105422 
z
" style="fill:#55a868;stroke:#ffffff;stroke-width:0.75;"/>
    <path clip-path="url(#p6235dc0508)" d="M 406.72007 194.486415 
L 403.72007 200.486415 
L 409.72007 200.486415 
z
" style="fill:#55a868;stroke:#ffffff;stroke-width:0.75;"/>
   </g>
   <g id="PathCollection_27"/>
   <g id="PathCollection_28"/>
   <g id="PathCollection_29"/>
   <g id="PathCollection_30"/>
   <g id="patch_6">
    <path d="M 279.152119 243 
L 279.152119 129.6 
" style="fill:none;stroke:#cccccc;stroke-linecap:square;stroke-linejoin:miter;stroke-width:1.25;"/>
   </g>
   <g id="patch_7">
    <path d="M 279.152119 243 
L 436.330991 243 
" style="fill:none;stroke:#cccccc;stroke-linecap:square;stroke-linejoin:miter;stroke-width:1.25;"/>
   </g>
   <g id="text_6">
    <!-- APR -->
    <defs>
     <path d="M 19.671875 64.796875 
L 19.671875 37.40625 
L 32.078125 37.40625 
Q 38.96875 37.40625 42.71875 40.96875 
Q 46.484375 44.53125 46.484375 51.125 
Q 46.484375 57.671875 42.71875 61.234375 
Q 38.96875 64.796875 32.078125 64.796875 
z
M 9.8125 72.90625 
L 32.078125 72.90625 
Q 44.34375 72.90625 50.609375 67.359375 
Q 56.890625 61.8125 56.890625 51.125 
Q 56.890625 40.328125 50.609375 34.8125 
Q 44.34375 29.296875 32.078125 29.296875 
L 19.671875 29.296875 
L 19.671875 0 
L 9.8125 0 
z
" id="DejaVuSans-80"/>
     <path d="M 44.390625 34.1875 
Q 47.5625 33.109375 50.5625 29.59375 
Q 53.5625 26.078125 56.59375 19.921875 
L 66.609375 0 
L 56 0 
L 46.6875 18.703125 
Q 43.0625 26.03125 39.671875 28.421875 
Q 36.28125 30.8125 30.421875 30.8125 
L 19.671875 30.8125 
L 19.671875 0 
L 9.8125 0 
L 9.8125 72.90625 
L 32.078125 72.90625 
Q 44.578125 72.90625 50.734375 67.671875 
Q 56.890625 62.453125 56.890625 51.90625 
Q 56.890625 45.015625 53.6875 40.46875 
Q 50.484375 35.9375 44.390625 34.1875 
z
M 19.671875 64.796875 
L 19.671875 38.921875 
L 32.078125 38.921875 
Q 39.203125 38.921875 42.84375 42.21875 
Q 46.484375 45.515625 46.484375 51.90625 
Q 46.484375 58.296875 42.84375 61.546875 
Q 39.203125 64.796875 32.078125 64.796875 
z
" id="DejaVuSans-82"/>
    </defs>
    <g style="fill:#262626;" transform="translate(345.850305 123.6)scale(0.12 -0.12)">
     <use xlink:href="#DejaVuSans-65"/>
     <use x="68.408203" xlink:href="#DejaVuSans-80"/>
     <use x="128.710938" xlink:href="#DejaVuSans-82"/>
    </g>
   </g>
  </g>
  <g id="axes_3">
   <g id="patch_8">
    <path d="M 483.484653 243 
L 640.663526 243 
L 640.663526 129.6 
L 483.484653 129.6 
z
" style="fill:#ffffff;"/>
   </g>
   <g id="matplotlib.axis_5">
    <g id="xtick_7">
     <g id="line2d_13">
      <path clip-path="url(#p5ed304a8a0)" d="M 504.105941 243 
L 504.105941 129.6 
" style="fill:none;stroke:#cccccc;stroke-linecap:round;"/>
     </g>
    </g>
    <g id="xtick_8">
     <g id="line2d_14">
      <path clip-path="url(#p5ed304a8a0)" d="M 557.579273 243 
L 557.579273 129.6 
" style="fill:none;stroke:#cccccc;stroke-linecap:round;"/>
     </g>
    </g>
    <g id="xtick_9">
     <g id="line2d_15">
      <path clip-path="url(#p5ed304a8a0)" d="M 611.052604 243 
L 611.052604 129.6 
" style="fill:none;stroke:#cccccc;stroke-linecap:round;"/>
     </g>
    </g>
   </g>
   <g id="matplotlib.axis_6">
    <g id="ytick_7">
     <g id="line2d_16">
      <path clip-path="url(#p5ed304a8a0)" d="M 483.484653 224.649346 
L 640.663526 224.649346 
" style="fill:none;stroke:#cccccc;stroke-linecap:round;"/>
     </g>
    </g>
    <g id="ytick_8">
     <g id="line2d_17">
      <path clip-path="url(#p5ed304a8a0)" d="M 483.484653 179.550128 
L 640.663526 179.550128 
" style="fill:none;stroke:#cccccc;stroke-linecap:round;"/>
     </g>
    </g>
    <g id="ytick_9">
     <g id="line2d_18">
      <path clip-path="url(#p5ed304a8a0)" d="M 483.484653 134.450911 
L 640.663526 134.450911 
" style="fill:none;stroke:#cccccc;stroke-linecap:round;"/>
     </g>
    </g>
   </g>
   <g id="PathCollection_31">
    <path clip-path="url(#p5ed304a8a0)" d="M 605.705271 197.09974 
C 606.50088 197.09974 607.264011 196.783641 607.826592 196.22106 
C 608.389172 195.658479 608.705271 194.895349 608.705271 194.09974 
C 608.705271 193.30413 608.389172 192.541 607.826592 191.978419 
C 607.264011 191.415839 606.50088 191.09974 605.705271 191.09974 
C 604.909662 191.09974 604.146532 191.415839 603.583951 191.978419 
C 603.02137 192.541 602.705271 193.30413 602.705271 194.09974 
C 602.705271 194.895349 603.02137 195.658479 603.583951 196.22106 
C 604.146532 196.783641 604.909662 197.09974 605.705271 197.09974 
z
" style="fill:#4c72b0;stroke:#ffffff;stroke-width:0.75;"/>
    <path clip-path="url(#p5ed304a8a0)" d="M 600.357938 217.335809 
L 603.357938 211.335809 
L 597.357938 211.335809 
z
" style="fill:#4c72b0;stroke:#ffffff;stroke-width:0.75;"/>
    <path clip-path="url(#p5ed304a8a0)" d="M 627.094604 184.614159 
L 624.094604 190.614159 
L 630.094604 190.614159 
z
" style="fill:#4c72b0;stroke:#ffffff;stroke-width:0.75;"/>
   </g>
   <g id="PathCollection_32"/>
   <g id="PathCollection_33"/>
   <g id="PathCollection_34"/>
   <g id="PathCollection_35"/>
   <g id="PathCollection_36">
    <path clip-path="url(#p5ed304a8a0)" d="M 605.705271 166.928751 
C 606.50088 166.928751 607.264011 166.612652 607.826592 166.050071 
C 608.389172 165.48749 608.705271 164.72436 608.705271 163.928751 
C 608.705271 163.133141 608.389172 162.370011 607.826592 161.80743 
C 607.264011 161.24485 606.50088 160.928751 605.705271 160.928751 
C 604.909662 160.928751 604.146532 161.24485 603.583951 161.80743 
C 603.02137 162.370011 602.705271 163.133141 602.705271 163.928751 
C 602.705271 164.72436 603.02137 165.48749 603.583951 166.050071 
C 604.146532 166.612652 604.909662 166.928751 605.705271 166.928751 
z
" style="fill:#dd8452;stroke:#ffffff;stroke-width:0.75;"/>
    <path clip-path="url(#p5ed304a8a0)" d="M 600.357938 183.129333 
L 603.357938 177.129333 
L 597.357938 177.129333 
z
" style="fill:#dd8452;stroke:#ffffff;stroke-width:0.75;"/>
    <path clip-path="url(#p5ed304a8a0)" d="M 627.094604 173.05493 
L 624.094604 179.05493 
L 630.094604 179.05493 
z
" style="fill:#dd8452;stroke:#ffffff;stroke-width:0.75;"/>
   </g>
   <g id="PathCollection_37"/>
   <g id="PathCollection_38"/>
   <g id="PathCollection_39"/>
   <g id="PathCollection_40"/>
   <g id="PathCollection_41">
    <path clip-path="url(#p5ed304a8a0)" d="M 605.705271 217.920992 
C 606.50088 217.920992 607.264011 217.604893 607.826592 217.042313 
C 608.389172 216.479732 608.705271 215.716602 608.705271 214.920992 
C 608.705271 214.125383 608.389172 213.362253 607.826592 212.799672 
C 607.264011 212.237091 606.50088 211.920992 605.705271 211.920992 
C 604.909662 211.920992 604.146532 212.237091 603.583951 212.799672 
C 603.02137 213.362253 602.705271 214.125383 602.705271 214.920992 
C 602.705271 215.716602 603.02137 216.479732 603.583951 217.042313 
C 604.146532 217.604893 604.909662 217.920992 605.705271 217.920992 
z
" style="fill:#55a868;stroke:#ffffff;stroke-width:0.75;"/>
    <path clip-path="url(#p5ed304a8a0)" d="M 600.357938 239.721167 
L 603.357938 233.721167 
L 597.357938 233.721167 
z
" style="fill:#55a868;stroke:#ffffff;stroke-width:0.75;"/>
    <path clip-path="url(#p5ed304a8a0)" d="M 627.094604 202.158517 
L 624.094604 208.158517 
L 630.094604 208.158517 
z
" style="fill:#55a868;stroke:#ffffff;stroke-width:0.75;"/>
   </g>
   <g id="PathCollection_42"/>
   <g id="PathCollection_43"/>
   <g id="PathCollection_44"/>
   <g id="PathCollection_45"/>
   <g id="patch_9">
    <path d="M 483.484653 243 
L 483.484653 129.6 
" style="fill:none;stroke:#cccccc;stroke-linecap:square;stroke-linejoin:miter;stroke-width:1.25;"/>
   </g>
   <g id="patch_10">
    <path d="M 483.484653 243 
L 640.663526 243 
" style="fill:none;stroke:#cccccc;stroke-linecap:square;stroke-linejoin:miter;stroke-width:1.25;"/>
   </g>
   <g id="text_7">
    <!-- ATG -->
    <defs>
     <path d="M -0.296875 72.90625 
L 61.375 72.90625 
L 61.375 64.59375 
L 35.5 64.59375 
L 35.5 0 
L 25.59375 0 
L 25.59375 64.59375 
L -0.296875 64.59375 
z
" id="DejaVuSans-84"/>
     <path d="M 59.515625 10.40625 
L 59.515625 29.984375 
L 43.40625 29.984375 
L 43.40625 38.09375 
L 69.28125 38.09375 
L 69.28125 6.78125 
Q 63.578125 2.734375 56.6875 0.65625 
Q 49.8125 -1.421875 42 -1.421875 
Q 24.90625 -1.421875 15.25 8.5625 
Q 5.609375 18.5625 5.609375 36.375 
Q 5.609375 54.25 15.25 64.234375 
Q 24.90625 74.21875 42 74.21875 
Q 49.125 74.21875 55.546875 72.453125 
Q 61.96875 70.703125 67.390625 67.28125 
L 67.390625 56.78125 
Q 61.921875 61.421875 55.765625 63.765625 
Q 49.609375 66.109375 42.828125 66.109375 
Q 29.4375 66.109375 22.71875 58.640625 
Q 16.015625 51.171875 16.015625 36.375 
Q 16.015625 21.625 22.71875 14.15625 
Q 29.4375 6.6875 42.828125 6.6875 
Q 48.046875 6.6875 52.140625 7.59375 
Q 56.25 8.5 59.515625 10.40625 
z
" id="DejaVuSans-71"/>
    </defs>
    <g style="fill:#262626;" transform="translate(549.662527 123.6)scale(0.12 -0.12)">
     <use xlink:href="#DejaVuSans-65"/>
     <use x="68.298828" xlink:href="#DejaVuSans-84"/>
     <use x="129.382812" xlink:href="#DejaVuSans-71"/>
    </g>
   </g>
  </g>
  <g id="axes_4">
   <g id="patch_11">
    <path d="M 74.819584 413.1 
L 231.998457 413.1 
L 231.998457 299.7 
L 74.819584 299.7 
z
" style="fill:#ffffff;"/>
   </g>
   <g id="matplotlib.axis_7">
    <g id="xtick_10">
     <g id="line2d_19">
      <path clip-path="url(#p9fe74c7b95)" d="M 95.440872 413.1 
L 95.440872 299.7 
" style="fill:none;stroke:#cccccc;stroke-linecap:round;"/>
     </g>
    </g>
    <g id="xtick_11">
     <g id="line2d_20">
      <path clip-path="url(#p9fe74c7b95)" d="M 148.914204 413.1 
L 148.914204 299.7 
" style="fill:none;stroke:#cccccc;stroke-linecap:round;"/>
     </g>
    </g>
    <g id="xtick_12">
     <g id="line2d_21">
      <path clip-path="url(#p9fe74c7b95)" d="M 202.387535 413.1 
L 202.387535 299.7 
" style="fill:none;stroke:#cccccc;stroke-linecap:round;"/>
     </g>
    </g>
   </g>
   <g id="matplotlib.axis_8">
    <g id="ytick_10">
     <g id="line2d_22">
      <path clip-path="url(#p9fe74c7b95)" d="M 74.819584 394.749346 
L 231.998457 394.749346 
" style="fill:none;stroke:#cccccc;stroke-linecap:round;"/>
     </g>
     <g id="text_8">
      <!-- −0.5 -->
      <g style="fill:#262626;" transform="translate(38.60849 398.928487)scale(0.11 -0.11)">
       <use xlink:href="#DejaVuSans-8722"/>
       <use x="83.789062" xlink:href="#DejaVuSans-48"/>
       <use x="147.412109" xlink:href="#DejaVuSans-46"/>
       <use x="179.199219" xlink:href="#DejaVuSans-53"/>
      </g>
     </g>
    </g>
    <g id="ytick_11">
     <g id="line2d_23">
      <path clip-path="url(#p9fe74c7b95)" d="M 74.819584 349.650128 
L 231.998457 349.650128 
" style="fill:none;stroke:#cccccc;stroke-linecap:round;"/>
     </g>
     <g id="text_9">
      <!-- 0.0 -->
      <g style="fill:#262626;" transform="translate(47.826147 353.829269)scale(0.11 -0.11)">
       <use xlink:href="#DejaVuSans-48"/>
       <use x="63.623047" xlink:href="#DejaVuSans-46"/>
       <use x="95.410156" xlink:href="#DejaVuSans-48"/>
      </g>
     </g>
    </g>
    <g id="ytick_12">
     <g id="line2d_24">
      <path clip-path="url(#p9fe74c7b95)" d="M 74.819584 304.550911 
L 231.998457 304.550911 
" style="fill:none;stroke:#cccccc;stroke-linecap:round;"/>
     </g>
     <g id="text_10">
      <!-- 0.5 -->
      <g style="fill:#262626;" transform="translate(47.826147 308.730051)scale(0.11 -0.11)">
       <use xlink:href="#DejaVuSans-48"/>
       <use x="63.623047" xlink:href="#DejaVuSans-46"/>
       <use x="95.410156" xlink:href="#DejaVuSans-53"/>
      </g>
     </g>
    </g>
    <g id="text_11">
     <!-- $\rho_p$ -->
     <g style="fill:#262626;" transform="translate(30.88849 363.06)rotate(-90)scale(0.12 -0.12)">
      <use xlink:href="#DejaVuSans-Oblique-961"/>
      <use transform="translate(63.476562 -16.40625)scale(0.7)" xlink:href="#DejaVuSans-Oblique-112"/>
     </g>
    </g>
   </g>
   <g id="PathCollection_46">
    <path clip-path="url(#p9fe74c7b95)" d="M 191.692869 337.141948 
C 192.488478 337.141948 193.251609 336.825849 193.814189 336.263269 
C 194.37677 335.700688 194.692869 334.937558 194.692869 334.141948 
C 194.692869 333.346339 194.37677 332.583209 193.814189 332.020628 
C 193.251609 331.458047 192.488478 331.141948 191.692869 331.141948 
C 190.89726 331.141948 190.13413 331.458047 189.571549 332.020628 
C 189.008968 332.583209 188.692869 333.346339 188.692869 334.141948 
C 188.692869 334.937558 189.008968 335.700688 189.571549 336.263269 
C 190.13413 336.825849 190.89726 337.141948 191.692869 337.141948 
z
" style="fill:#4c72b0;stroke:#ffffff;stroke-width:0.75;"/>
    <path clip-path="url(#p9fe74c7b95)" d="M 197.040202 348.379386 
L 200.040202 342.379386 
L 194.040202 342.379386 
z
" style="fill:#4c72b0;stroke:#ffffff;stroke-width:0.75;"/>
    <path clip-path="url(#p9fe74c7b95)" d="M 223.776868 311.868214 
L 220.776868 317.868214 
L 226.776868 317.868214 
z
" style="fill:#4c72b0;stroke:#ffffff;stroke-width:0.75;"/>
   </g>
   <g id="PathCollection_47"/>
   <g id="PathCollection_48"/>
   <g id="PathCollection_49"/>
   <g id="PathCollection_50"/>
   <g id="PathCollection_51">
    <path clip-path="url(#p9fe74c7b95)" d="M 191.692869 355.975924 
C 192.488478 355.975924 193.251609 355.659825 193.814189 355.097244 
C 194.37677 354.534663 194.692869 353.771533 194.692869 352.975924 
C 194.692869 352.180314 194.37677 351.417184 193.814189 350.854603 
C 193.251609 350.292023 192.488478 349.975924 191.692869 349.975924 
C 190.89726 349.975924 190.13413 350.292023 189.571549 350.854603 
C 189.008968 351.417184 188.692869 352.180314 188.692869 352.975924 
C 188.692869 353.771533 189.008968 354.534663 189.571549 355.097244 
C 190.13413 355.659825 190.89726 355.975924 191.692869 355.975924 
z
" style="fill:#dd8452;stroke:#ffffff;stroke-width:0.75;"/>
    <path clip-path="url(#p9fe74c7b95)" d="M 197.040202 333.64159 
L 200.040202 327.64159 
L 194.040202 327.64159 
z
" style="fill:#dd8452;stroke:#ffffff;stroke-width:0.75;"/>
    <path clip-path="url(#p9fe74c7b95)" d="M 223.776868 317.857096 
L 220.776868 323.857096 
L 226.776868 323.857096 
z
" style="fill:#dd8452;stroke:#ffffff;stroke-width:0.75;"/>
   </g>
   <g id="PathCollection_52"/>
   <g id="PathCollection_53"/>
   <g id="PathCollection_54"/>
   <g id="PathCollection_55"/>
   <g id="PathCollection_56">
    <path clip-path="url(#p9fe74c7b95)" d="M 191.692869 356.138441 
C 192.488478 356.138441 193.251609 355.822342 193.814189 355.259761 
C 194.37677 354.69718 194.692869 353.93405 194.692869 353.138441 
C 194.692869 352.342832 194.37677 351.579701 193.814189 351.017121 
C 193.251609 350.45454 192.488478 350.138441 191.692869 350.138441 
C 190.89726 350.138441 190.13413 350.45454 189.571549 351.017121 
C 189.008968 351.579701 188.692869 352.342832 188.692869 353.138441 
C 188.692869 353.93405 189.008968 354.69718 189.571549 355.259761 
C 190.13413 355.822342 190.89726 356.138441 191.692869 356.138441 
z
" style="fill:#55a868;stroke:#ffffff;stroke-width:0.75;"/>
    <path clip-path="url(#p9fe74c7b95)" d="M 197.040202 356.554706 
L 200.040202 350.554706 
L 194.040202 350.554706 
z
" style="fill:#55a868;stroke:#ffffff;stroke-width:0.75;"/>
    <path clip-path="url(#p9fe74c7b95)" d="M 223.776868 323.540192 
L 220.776868 329.540192 
L 226.776868 329.540192 
z
" style="fill:#55a868;stroke:#ffffff;stroke-width:0.75;"/>
   </g>
   <g id="PathCollection_57"/>
   <g id="PathCollection_58"/>
   <g id="PathCollection_59"/>
   <g id="PathCollection_60"/>
   <g id="patch_12">
    <path d="M 74.819584 413.1 
L 74.819584 299.7 
" style="fill:none;stroke:#cccccc;stroke-linecap:square;stroke-linejoin:miter;stroke-width:1.25;"/>
   </g>
   <g id="patch_13">
    <path d="M 74.819584 413.1 
L 231.998457 413.1 
" style="fill:none;stroke:#cccccc;stroke-linecap:square;stroke-linejoin:miter;stroke-width:1.25;"/>
   </g>
   <g id="text_12">
    <!-- BSK -->
    <defs>
     <path d="M 19.671875 34.8125 
L 19.671875 8.109375 
L 35.5 8.109375 
Q 43.453125 8.109375 47.28125 11.40625 
Q 51.125 14.703125 51.125 21.484375 
Q 51.125 28.328125 47.28125 31.5625 
Q 43.453125 34.8125 35.5 34.8125 
z
M 19.671875 64.796875 
L 19.671875 42.828125 
L 34.28125 42.828125 
Q 41.5 42.828125 45.03125 45.53125 
Q 48.578125 48.25 48.578125 53.8125 
Q 48.578125 59.328125 45.03125 62.0625 
Q 41.5 64.796875 34.28125 64.796875 
z
M 9.8125 72.90625 
L 35.015625 72.90625 
Q 46.296875 72.90625 52.390625 68.21875 
Q 58.5 63.53125 58.5 54.890625 
Q 58.5 48.1875 55.375 44.234375 
Q 52.25 40.28125 46.1875 39.3125 
Q 53.46875 37.75 57.5 32.78125 
Q 61.53125 27.828125 61.53125 20.40625 
Q 61.53125 10.640625 54.890625 5.3125 
Q 48.25 0 35.984375 0 
L 9.8125 0 
z
" id="DejaVuSans-66"/>
     <path d="M 53.515625 70.515625 
L 53.515625 60.890625 
Q 47.90625 63.578125 42.921875 64.890625 
Q 37.9375 66.21875 33.296875 66.21875 
Q 25.25 66.21875 20.875 63.09375 
Q 16.5 59.96875 16.5 54.203125 
Q 16.5 49.359375 19.40625 46.890625 
Q 22.3125 44.4375 30.421875 42.921875 
L 36.375 41.703125 
Q 47.40625 39.59375 52.65625 34.296875 
Q 57.90625 29 57.90625 20.125 
Q 57.90625 9.515625 50.796875 4.046875 
Q 43.703125 -1.421875 29.984375 -1.421875 
Q 24.8125 -1.421875 18.96875 -0.25 
Q 13.140625 0.921875 6.890625 3.21875 
L 6.890625 13.375 
Q 12.890625 10.015625 18.65625 8.296875 
Q 24.421875 6.59375 29.984375 6.59375 
Q 38.421875 6.59375 43.015625 9.90625 
Q 47.609375 13.234375 47.609375 19.390625 
Q 47.609375 24.75 44.3125 27.78125 
Q 41.015625 30.8125 33.5 32.328125 
L 27.484375 33.5 
Q 16.453125 35.6875 11.515625 40.375 
Q 6.59375 45.0625 6.59375 53.421875 
Q 6.59375 63.09375 13.40625 68.65625 
Q 20.21875 74.21875 32.171875 74.21875 
Q 37.3125 74.21875 42.625 73.28125 
Q 47.953125 72.359375 53.515625 70.515625 
z
" id="DejaVuSans-83"/>
     <path d="M 9.8125 72.90625 
L 19.671875 72.90625 
L 19.671875 42.09375 
L 52.390625 72.90625 
L 65.09375 72.90625 
L 28.90625 38.921875 
L 67.671875 0 
L 54.6875 0 
L 19.671875 35.109375 
L 19.671875 0 
L 9.8125 0 
z
" id="DejaVuSans-75"/>
    </defs>
    <g style="fill:#262626;" transform="translate(141.549645 293.7)scale(0.12 -0.12)">
     <use xlink:href="#DejaVuSans-66"/>
     <use x="68.587891" xlink:href="#DejaVuSans-83"/>
     <use x="132.064453" xlink:href="#DejaVuSans-75"/>
    </g>
   </g>
  </g>
  <g id="axes_5">
   <g id="patch_14">
    <path d="M 279.152119 413.1 
L 436.330991 413.1 
L 436.330991 299.7 
L 279.152119 299.7 
z
" style="fill:#ffffff;"/>
   </g>
   <g id="matplotlib.axis_9">
    <g id="xtick_13">
     <g id="line2d_25">
      <path clip-path="url(#pee475c431e)" d="M 299.773406 413.1 
L 299.773406 299.7 
" style="fill:none;stroke:#cccccc;stroke-linecap:round;"/>
     </g>
    </g>
    <g id="xtick_14">
     <g id="line2d_26">
      <path clip-path="url(#pee475c431e)" d="M 353.246738 413.1 
L 353.246738 299.7 
" style="fill:none;stroke:#cccccc;stroke-linecap:round;"/>
     </g>
    </g>
    <g id="xtick_15">
     <g id="line2d_27">
      <path clip-path="url(#pee475c431e)" d="M 406.72007 413.1 
L 406.72007 299.7 
" style="fill:none;stroke:#cccccc;stroke-linecap:round;"/>
     </g>
    </g>
   </g>
   <g id="matplotlib.axis_10">
    <g id="ytick_13">
     <g id="line2d_28">
      <path clip-path="url(#pee475c431e)" d="M 279.152119 394.749346 
L 436.330991 394.749346 
" style="fill:none;stroke:#cccccc;stroke-linecap:round;"/>
     </g>
    </g>
    <g id="ytick_14">
     <g id="line2d_29">
      <path clip-path="url(#pee475c431e)" d="M 279.152119 349.650128 
L 436.330991 349.650128 
" style="fill:none;stroke:#cccccc;stroke-linecap:round;"/>
     </g>
    </g>
    <g id="ytick_15">
     <g id="line2d_30">
      <path clip-path="url(#pee475c431e)" d="M 279.152119 304.550911 
L 436.330991 304.550911 
" style="fill:none;stroke:#cccccc;stroke-linecap:round;"/>
     </g>
    </g>
   </g>
   <g id="PathCollection_61">
    <path clip-path="url(#pee475c431e)" d="M 289.07874 347.581835 
C 289.874349 347.581835 290.63748 347.265736 291.20006 346.703156 
C 291.762641 346.140575 292.07874 345.377444 292.07874 344.581835 
C 292.07874 343.786226 291.762641 343.023096 291.20006 342.460515 
C 290.63748 341.897934 289.874349 341.581835 289.07874 341.581835 
C 288.283131 341.581835 287.52 341.897934 286.95742 342.460515 
C 286.394839 343.023096 286.07874 343.786226 286.07874 344.581835 
C 286.07874 345.377444 286.394839 346.140575 286.95742 346.703156 
C 287.52 347.265736 288.283131 347.581835 289.07874 347.581835 
z
" style="fill:#4c72b0;stroke:#ffffff;stroke-width:0.75;"/>
    <path clip-path="url(#pee475c431e)" d="M 294.426073 319.79728 
L 297.426073 313.79728 
L 291.426073 313.79728 
z
" style="fill:#4c72b0;stroke:#ffffff;stroke-width:0.75;"/>
    <path clip-path="url(#pee475c431e)" d="M 315.815406 317.25504 
L 312.815406 323.25504 
L 318.815406 323.25504 
z
" style="fill:#4c72b0;stroke:#ffffff;stroke-width:0.75;"/>
   </g>
   <g id="PathCollection_62"/>
   <g id="PathCollection_63"/>
   <g id="PathCollection_64"/>
   <g id="PathCollection_65"/>
   <g id="PathCollection_66">
    <path clip-path="url(#pee475c431e)" d="M 289.07874 350.709085 
C 289.874349 350.709085 290.63748 350.392986 291.20006 349.830405 
C 291.762641 349.267825 292.07874 348.504694 292.07874 347.709085 
C 292.07874 346.913476 291.762641 346.150345 291.20006 345.587765 
C 290.63748 345.025184 289.874349 344.709085 289.07874 344.709085 
C 288.283131 344.709085 287.52 345.025184 286.95742 345.587765 
C 286.394839 346.150345 286.07874 346.913476 286.07874 347.709085 
C 286.07874 348.504694 286.394839 349.267825 286.95742 349.830405 
C 287.52 350.392986 288.283131 350.709085 289.07874 350.709085 
z
" style="fill:#dd8452;stroke:#ffffff;stroke-width:0.75;"/>
    <path clip-path="url(#pee475c431e)" d="M 294.426073 313.912617 
L 297.426073 307.912617 
L 291.426073 307.912617 
z
" style="fill:#dd8452;stroke:#ffffff;stroke-width:0.75;"/>
    <path clip-path="url(#pee475c431e)" d="M 315.815406 334.66102 
L 312.815406 340.66102 
L 318.815406 340.66102 
z
" style="fill:#dd8452;stroke:#ffffff;stroke-width:0.75;"/>
   </g>
   <g id="PathCollection_67"/>
   <g id="PathCollection_68"/>
   <g id="PathCollection_69"/>
   <g id="PathCollection_70"/>
   <g id="PathCollection_71">
    <path clip-path="url(#pee475c431e)" d="M 289.07874 358.194233 
C 289.874349 358.194233 290.63748 357.878134 291.20006 357.315553 
C 291.762641 356.752972 292.07874 355.989842 292.07874 355.194233 
C 292.07874 354.398623 291.762641 353.635493 291.20006 353.072912 
C 290.63748 352.510332 289.874349 352.194233 289.07874 352.194233 
C 288.283131 352.194233 287.52 352.510332 286.95742 353.072912 
C 286.394839 353.635493 286.07874 354.398623 286.07874 355.194233 
C 286.07874 355.989842 286.394839 356.752972 286.95742 357.315553 
C 287.52 357.878134 288.283131 358.194233 289.07874 358.194233 
z
" style="fill:#55a868;stroke:#ffffff;stroke-width:0.75;"/>
    <path clip-path="url(#pee475c431e)" d="M 294.426073 342.438899 
L 297.426073 336.438899 
L 291.426073 336.438899 
z
" style="fill:#55a868;stroke:#ffffff;stroke-width:0.75;"/>
    <path clip-path="url(#pee475c431e)" d="M 315.815406 354.955939 
L 312.815406 360.955939 
L 318.815406 360.955939 
z
" style="fill:#55a868;stroke:#ffffff;stroke-width:0.75;"/>
   </g>
   <g id="PathCollection_72"/>
   <g id="PathCollection_73"/>
   <g id="PathCollection_74"/>
   <g id="PathCollection_75"/>
   <g id="patch_15">
    <path d="M 279.152119 413.1 
L 279.152119 299.7 
" style="fill:none;stroke:#cccccc;stroke-linecap:square;stroke-linejoin:miter;stroke-width:1.25;"/>
   </g>
   <g id="patch_16">
    <path d="M 279.152119 413.1 
L 436.330991 413.1 
" style="fill:none;stroke:#cccccc;stroke-linecap:square;stroke-linejoin:miter;stroke-width:1.25;"/>
   </g>
   <g id="text_13">
    <!-- CEETOX -->
    <defs>
     <path d="M 39.40625 66.21875 
Q 28.65625 66.21875 22.328125 58.203125 
Q 16.015625 50.203125 16.015625 36.375 
Q 16.015625 22.609375 22.328125 14.59375 
Q 28.65625 6.59375 39.40625 6.59375 
Q 50.140625 6.59375 56.421875 14.59375 
Q 62.703125 22.609375 62.703125 36.375 
Q 62.703125 50.203125 56.421875 58.203125 
Q 50.140625 66.21875 39.40625 66.21875 
z
M 39.40625 74.21875 
Q 54.734375 74.21875 63.90625 63.9375 
Q 73.09375 53.65625 73.09375 36.375 
Q 73.09375 19.140625 63.90625 8.859375 
Q 54.734375 -1.421875 39.40625 -1.421875 
Q 24.03125 -1.421875 14.8125 8.828125 
Q 5.609375 19.09375 5.609375 36.375 
Q 5.609375 53.65625 14.8125 63.9375 
Q 24.03125 74.21875 39.40625 74.21875 
z
" id="DejaVuSans-79"/>
     <path d="M 6.296875 72.90625 
L 16.890625 72.90625 
L 35.015625 45.796875 
L 53.21875 72.90625 
L 63.8125 72.90625 
L 40.375 37.890625 
L 65.375 0 
L 54.78125 0 
L 34.28125 31 
L 13.625 0 
L 2.984375 0 
L 29 38.921875 
z
" id="DejaVuSans-88"/>
    </defs>
    <g style="fill:#262626;" transform="translate(333.47718 293.7)scale(0.12 -0.12)">
     <use xlink:href="#DejaVuSans-67"/>
     <use x="69.824219" xlink:href="#DejaVuSans-69"/>
     <use x="133.007812" xlink:href="#DejaVuSans-69"/>
     <use x="196.191406" xlink:href="#DejaVuSans-84"/>
     <use x="257.275391" xlink:href="#DejaVuSans-79"/>
     <use x="335.892578" xlink:href="#DejaVuSans-88"/>
    </g>
   </g>
  </g>
  <g id="axes_6">
   <g id="patch_17">
    <path d="M 483.484653 413.1 
L 640.663526 413.1 
L 640.663526 299.7 
L 483.484653 299.7 
z
" style="fill:#ffffff;"/>
   </g>
   <g id="matplotlib.axis_11">
    <g id="xtick_16">
     <g id="line2d_31">
      <path clip-path="url(#p9ad94250b8)" d="M 504.105941 413.1 
L 504.105941 299.7 
" style="fill:none;stroke:#cccccc;stroke-linecap:round;"/>
     </g>
    </g>
    <g id="xtick_17">
     <g id="line2d_32">
      <path clip-path="url(#p9ad94250b8)" d="M 557.579273 413.1 
L 557.579273 299.7 
" style="fill:none;stroke:#cccccc;stroke-linecap:round;"/>
     </g>
    </g>
    <g id="xtick_18">
     <g id="line2d_33">
      <path clip-path="url(#p9ad94250b8)" d="M 611.052604 413.1 
L 611.052604 299.7 
" style="fill:none;stroke:#cccccc;stroke-linecap:round;"/>
     </g>
    </g>
   </g>
   <g id="matplotlib.axis_12">
    <g id="ytick_16">
     <g id="line2d_34">
      <path clip-path="url(#p9ad94250b8)" d="M 483.484653 394.749346 
L 640.663526 394.749346 
" style="fill:none;stroke:#cccccc;stroke-linecap:round;"/>
     </g>
    </g>
    <g id="ytick_17">
     <g id="line2d_35">
      <path clip-path="url(#p9ad94250b8)" d="M 483.484653 349.650128 
L 640.663526 349.650128 
" style="fill:none;stroke:#cccccc;stroke-linecap:round;"/>
     </g>
    </g>
    <g id="ytick_18">
     <g id="line2d_36">
      <path clip-path="url(#p9ad94250b8)" d="M 483.484653 304.550911 
L 640.663526 304.550911 
" style="fill:none;stroke:#cccccc;stroke-linecap:round;"/>
     </g>
    </g>
   </g>
   <g id="PathCollection_76">
    <path clip-path="url(#p9ad94250b8)" d="M 578.968605 347.723281 
C 579.764215 347.723281 580.527345 347.407182 581.089926 346.844602 
C 581.652506 346.282021 581.968605 345.518891 581.968605 344.723281 
C 581.968605 343.927672 581.652506 343.164542 581.089926 342.601961 
C 580.527345 342.03938 579.764215 341.723281 578.968605 341.723281 
C 578.172996 341.723281 577.409866 342.03938 576.847285 342.601961 
C 576.284704 343.164542 575.968605 343.927672 575.968605 344.723281 
C 575.968605 345.518891 576.284704 346.282021 576.847285 346.844602 
C 577.409866 347.407182 578.172996 347.723281 578.968605 347.723281 
z
" style="fill:#4c72b0;stroke:#ffffff;stroke-width:0.75;"/>
    <path clip-path="url(#p9ad94250b8)" d="M 573.621272 333.625463 
L 576.621272 327.625463 
L 570.621272 327.625463 
z
" style="fill:#4c72b0;stroke:#ffffff;stroke-width:0.75;"/>
    <path clip-path="url(#p9ad94250b8)" d="M 605.705271 321.874994 
L 602.705271 327.874994 
L 608.705271 327.874994 
z
" style="fill:#4c72b0;stroke:#ffffff;stroke-width:0.75;"/>
   </g>
   <g id="PathCollection_77"/>
   <g id="PathCollection_78"/>
   <g id="PathCollection_79"/>
   <g id="PathCollection_80"/>
   <g id="PathCollection_81">
    <path clip-path="url(#p9ad94250b8)" d="M 578.968605 358.949853 
C 579.764215 358.949853 580.527345 358.633754 581.089926 358.071173 
C 581.652506 357.508592 581.968605 356.745462 581.968605 355.949853 
C 581.968605 355.154243 581.652506 354.391113 581.089926 353.828532 
C 580.527345 353.265952 579.764215 352.949853 578.968605 352.949853 
C 578.172996 352.949853 577.409866 353.265952 576.847285 353.828532 
C 576.284704 354.391113 575.968605 355.154243 575.968605 355.949853 
C 575.968605 356.745462 576.284704 357.508592 576.847285 358.071173 
C 577.409866 358.633754 578.172996 358.949853 578.968605 358.949853 
z
" style="fill:#dd8452;stroke:#ffffff;stroke-width:0.75;"/>
    <path clip-path="url(#p9ad94250b8)" d="M 573.621272 325.754257 
L 576.621272 319.754257 
L 570.621272 319.754257 
z
" style="fill:#dd8452;stroke:#ffffff;stroke-width:0.75;"/>
   </g>
   <g id="PathCollection_82"/>
   <g id="PathCollection_83"/>
   <g id="PathCollection_84"/>
   <g id="PathCollection_85">
    <path clip-path="url(#p9ad94250b8)" d="M 578.968605 323.304199 
C 579.764215 323.304199 580.527345 322.9881 581.089926 322.42552 
C 581.652506 321.862939 581.968605 321.099809 581.968605 320.304199 
C 581.968605 319.50859 581.652506 318.74546 581.089926 318.182879 
C 580.527345 317.620298 579.764215 317.304199 578.968605 317.304199 
C 578.172996 317.304199 577.409866 317.620298 576.847285 318.182879 
C 576.284704 318.74546 575.968605 319.50859 575.968605 320.304199 
C 575.968605 321.099809 576.284704 321.862939 576.847285 322.42552 
C 577.409866 322.9881 578.172996 323.304199 578.968605 323.304199 
z
" style="fill:#55a868;stroke:#ffffff;stroke-width:0.75;"/>
    <path clip-path="url(#p9ad94250b8)" d="M 573.621272 329.063837 
L 576.621272 323.063837 
L 570.621272 323.063837 
z
" style="fill:#55a868;stroke:#ffffff;stroke-width:0.75;"/>
    <path clip-path="url(#p9ad94250b8)" d="M 605.705271 303.623028 
L 602.705271 309.623028 
L 608.705271 309.623028 
z
" style="fill:#55a868;stroke:#ffffff;stroke-width:0.75;"/>
   </g>
   <g id="PathCollection_86"/>
   <g id="PathCollection_87"/>
   <g id="PathCollection_88"/>
   <g id="PathCollection_89"/>
   <g id="patch_18">
    <path d="M 483.484653 413.1 
L 483.484653 299.7 
" style="fill:none;stroke:#cccccc;stroke-linecap:square;stroke-linejoin:miter;stroke-width:1.25;"/>
   </g>
   <g id="patch_19">
    <path d="M 483.484653 413.1 
L 640.663526 413.1 
" style="fill:none;stroke:#cccccc;stroke-linecap:square;stroke-linejoin:miter;stroke-width:1.25;"/>
   </g>
   <g id="text_14">
    <!-- CLD -->
    <defs>
     <path d="M 9.8125 72.90625 
L 19.671875 72.90625 
L 19.671875 8.296875 
L 55.171875 8.296875 
L 55.171875 0 
L 9.8125 0 
z
" id="DejaVuSans-76"/>
     <path d="M 19.671875 64.796875 
L 19.671875 8.109375 
L 31.59375 8.109375 
Q 46.6875 8.109375 53.6875 14.9375 
Q 60.6875 21.78125 60.6875 36.53125 
Q 60.6875 51.171875 53.6875 57.984375 
Q 46.6875 64.796875 31.59375 64.796875 
z
M 9.8125 72.90625 
L 30.078125 72.90625 
Q 51.265625 72.90625 61.171875 64.09375 
Q 71.09375 55.28125 71.09375 36.53125 
Q 71.09375 17.671875 61.125 8.828125 
Q 51.171875 0 30.078125 0 
L 9.8125 0 
z
" id="DejaVuSans-68"/>
    </defs>
    <g style="fill:#262626;" transform="translate(549.921277 293.7)scale(0.12 -0.12)">
     <use xlink:href="#DejaVuSans-67"/>
     <use x="69.824219" xlink:href="#DejaVuSans-76"/>
     <use x="125.537109" xlink:href="#DejaVuSans-68"/>
    </g>
   </g>
  </g>
  <g id="axes_7">
   <g id="patch_20">
    <path d="M 74.819584 583.2 
L 231.998457 583.2 
L 231.998457 469.8 
L 74.819584 469.8 
z
" style="fill:#ffffff;"/>
   </g>
   <g id="matplotlib.axis_13">
    <g id="xtick_19">
     <g id="line2d_37">
      <path clip-path="url(#p988fdc7da4)" d="M 95.440872 583.2 
L 95.440872 469.8 
" style="fill:none;stroke:#cccccc;stroke-linecap:round;"/>
     </g>
     <g id="text_15">
      <!-- 10 -->
      <defs>
       <path d="M 12.40625 8.296875 
L 28.515625 8.296875 
L 28.515625 63.921875 
L 10.984375 60.40625 
L 10.984375 69.390625 
L 28.421875 72.90625 
L 38.28125 72.90625 
L 38.28125 8.296875 
L 54.390625 8.296875 
L 54.390625 0 
L 12.40625 0 
z
" id="DejaVuSans-49"/>
      </defs>
      <g style="fill:#262626;" transform="translate(88.442122 601.058281)scale(0.11 -0.11)">
       <use xlink:href="#DejaVuSans-49"/>
       <use x="63.623047" xlink:href="#DejaVuSans-48"/>
      </g>
     </g>
    </g>
    <g id="xtick_20">
     <g id="line2d_38">
      <path clip-path="url(#p988fdc7da4)" d="M 148.914204 583.2 
L 148.914204 469.8 
" style="fill:none;stroke:#cccccc;stroke-linecap:round;"/>
     </g>
     <g id="text_16">
      <!-- 20 -->
      <defs>
       <path d="M 19.1875 8.296875 
L 53.609375 8.296875 
L 53.609375 0 
L 7.328125 0 
L 7.328125 8.296875 
Q 12.9375 14.109375 22.625 23.890625 
Q 32.328125 33.6875 34.8125 36.53125 
Q 39.546875 41.84375 41.421875 45.53125 
Q 43.3125 49.21875 43.3125 52.78125 
Q 43.3125 58.59375 39.234375 62.25 
Q 35.15625 65.921875 28.609375 65.921875 
Q 23.96875 65.921875 18.8125 64.3125 
Q 13.671875 62.703125 7.8125 59.421875 
L 7.8125 69.390625 
Q 13.765625 71.78125 18.9375 73 
Q 24.125 74.21875 28.421875 74.21875 
Q 39.75 74.21875 46.484375 68.546875 
Q 53.21875 62.890625 53.21875 53.421875 
Q 53.21875 48.921875 51.53125 44.890625 
Q 49.859375 40.875 45.40625 35.40625 
Q 44.1875 33.984375 37.640625 27.21875 
Q 31.109375 20.453125 19.1875 8.296875 
z
" id="DejaVuSans-50"/>
      </defs>
      <g style="fill:#262626;" transform="translate(141.915454 601.058281)scale(0.11 -0.11)">
       <use xlink:href="#DejaVuSans-50"/>
       <use x="63.623047" xlink:href="#DejaVuSans-48"/>
      </g>
     </g>
    </g>
    <g id="xtick_21">
     <g id="line2d_39">
      <path clip-path="url(#p988fdc7da4)" d="M 202.387535 583.2 
L 202.387535 469.8 
" style="fill:none;stroke:#cccccc;stroke-linecap:round;"/>
     </g>
     <g id="text_17">
      <!-- 30 -->
      <defs>
       <path d="M 40.578125 39.3125 
Q 47.65625 37.796875 51.625 33 
Q 55.609375 28.21875 55.609375 21.1875 
Q 55.609375 10.40625 48.1875 4.484375 
Q 40.765625 -1.421875 27.09375 -1.421875 
Q 22.515625 -1.421875 17.65625 -0.515625 
Q 12.796875 0.390625 7.625 2.203125 
L 7.625 11.71875 
Q 11.71875 9.328125 16.59375 8.109375 
Q 21.484375 6.890625 26.8125 6.890625 
Q 36.078125 6.890625 40.9375 10.546875 
Q 45.796875 14.203125 45.796875 21.1875 
Q 45.796875 27.640625 41.28125 31.265625 
Q 36.765625 34.90625 28.71875 34.90625 
L 20.21875 34.90625 
L 20.21875 43.015625 
L 29.109375 43.015625 
Q 36.375 43.015625 40.234375 45.921875 
Q 44.09375 48.828125 44.09375 54.296875 
Q 44.09375 59.90625 40.109375 62.90625 
Q 36.140625 65.921875 28.71875 65.921875 
Q 24.65625 65.921875 20.015625 65.03125 
Q 15.375 64.15625 9.8125 62.3125 
L 9.8125 71.09375 
Q 15.4375 72.65625 20.34375 73.4375 
Q 25.25 74.21875 29.59375 74.21875 
Q 40.828125 74.21875 47.359375 69.109375 
Q 53.90625 64.015625 53.90625 55.328125 
Q 53.90625 49.265625 50.4375 45.09375 
Q 46.96875 40.921875 40.578125 39.3125 
z
" id="DejaVuSans-51"/>
      </defs>
      <g style="fill:#262626;" transform="translate(195.388785 601.058281)scale(0.11 -0.11)">
       <use xlink:href="#DejaVuSans-51"/>
       <use x="63.623047" xlink:href="#DejaVuSans-48"/>
      </g>
     </g>
    </g>
    <g id="text_18">
     <!-- Number of chemicals ($n$) -->
     <defs>
      <path d="M 9.8125 72.90625 
L 23.09375 72.90625 
L 55.421875 11.921875 
L 55.421875 72.90625 
L 64.984375 72.90625 
L 64.984375 0 
L 51.703125 0 
L 19.390625 60.984375 
L 19.390625 0 
L 9.8125 0 
z
" id="DejaVuSans-78"/>
      <path d="M 8.5 21.578125 
L 8.5 54.6875 
L 17.484375 54.6875 
L 17.484375 21.921875 
Q 17.484375 14.15625 20.5 10.265625 
Q 23.53125 6.390625 29.59375 6.390625 
Q 36.859375 6.390625 41.078125 11.03125 
Q 45.3125 15.671875 45.3125 23.6875 
L 45.3125 54.6875 
L 54.296875 54.6875 
L 54.296875 0 
L 45.3125 0 
L 45.3125 8.40625 
Q 42.046875 3.421875 37.71875 1 
Q 33.40625 -1.421875 27.6875 -1.421875 
Q 18.265625 -1.421875 13.375 4.4375 
Q 8.5 10.296875 8.5 21.578125 
z
M 31.109375 56 
z
" id="DejaVuSans-117"/>
      <path d="M 52 44.1875 
Q 55.375 50.25 60.0625 53.125 
Q 64.75 56 71.09375 56 
Q 79.640625 56 84.28125 50.015625 
Q 88.921875 44.046875 88.921875 33.015625 
L 88.921875 0 
L 79.890625 0 
L 79.890625 32.71875 
Q 79.890625 40.578125 77.09375 44.375 
Q 74.3125 48.1875 68.609375 48.1875 
Q 61.625 48.1875 57.5625 43.546875 
Q 53.515625 38.921875 53.515625 30.90625 
L 53.515625 0 
L 44.484375 0 
L 44.484375 32.71875 
Q 44.484375 40.625 41.703125 44.40625 
Q 38.921875 48.1875 33.109375 48.1875 
Q 26.21875 48.1875 22.15625 43.53125 
Q 18.109375 38.875 18.109375 30.90625 
L 18.109375 0 
L 9.078125 0 
L 9.078125 54.6875 
L 18.109375 54.6875 
L 18.109375 46.1875 
Q 21.1875 51.21875 25.484375 53.609375 
Q 29.78125 56 35.6875 56 
Q 41.65625 56 45.828125 52.96875 
Q 50 49.953125 52 44.1875 
z
" id="DejaVuSans-109"/>
      <path d="M 48.6875 27.296875 
Q 48.6875 37.203125 44.609375 42.84375 
Q 40.53125 48.484375 33.40625 48.484375 
Q 26.265625 48.484375 22.1875 42.84375 
Q 18.109375 37.203125 18.109375 27.296875 
Q 18.109375 17.390625 22.1875 11.75 
Q 26.265625 6.109375 33.40625 6.109375 
Q 40.53125 6.109375 44.609375 11.75 
Q 48.6875 17.390625 48.6875 27.296875 
z
M 18.109375 46.390625 
Q 20.953125 51.265625 25.265625 53.625 
Q 29.59375 56 35.59375 56 
Q 45.5625 56 51.78125 48.09375 
Q 58.015625 40.1875 58.015625 27.296875 
Q 58.015625 14.40625 51.78125 6.484375 
Q 45.5625 -1.421875 35.59375 -1.421875 
Q 29.59375 -1.421875 25.265625 0.953125 
Q 20.953125 3.328125 18.109375 8.203125 
L 18.109375 0 
L 9.078125 0 
L 9.078125 75.984375 
L 18.109375 75.984375 
z
" id="DejaVuSans-98"/>
      <path d="M 56.203125 29.59375 
L 56.203125 25.203125 
L 14.890625 25.203125 
Q 15.484375 15.921875 20.484375 11.0625 
Q 25.484375 6.203125 34.421875 6.203125 
Q 39.59375 6.203125 44.453125 7.46875 
Q 49.3125 8.734375 54.109375 11.28125 
L 54.109375 2.78125 
Q 49.265625 0.734375 44.1875 -0.34375 
Q 39.109375 -1.421875 33.890625 -1.421875 
Q 20.796875 -1.421875 13.15625 6.1875 
Q 5.515625 13.8125 5.515625 26.8125 
Q 5.515625 40.234375 12.765625 48.109375 
Q 20.015625 56 32.328125 56 
Q 43.359375 56 49.78125 48.890625 
Q 56.203125 41.796875 56.203125 29.59375 
z
M 47.21875 32.234375 
Q 47.125 39.59375 43.09375 43.984375 
Q 39.0625 48.390625 32.421875 48.390625 
Q 24.90625 48.390625 20.390625 44.140625 
Q 15.875 39.890625 15.1875 32.171875 
z
" id="DejaVuSans-101"/>
      <path d="M 41.109375 46.296875 
Q 39.59375 47.171875 37.8125 47.578125 
Q 36.03125 48 33.890625 48 
Q 26.265625 48 22.1875 43.046875 
Q 18.109375 38.09375 18.109375 28.8125 
L 18.109375 0 
L 9.078125 0 
L 9.078125 54.6875 
L 18.109375 54.6875 
L 18.109375 46.1875 
Q 20.953125 51.171875 25.484375 53.578125 
Q 30.03125 56 36.53125 56 
Q 37.453125 56 38.578125 55.875 
Q 39.703125 55.765625 41.0625 55.515625 
z
" id="DejaVuSans-114"/>
      <path id="DejaVuSans-32"/>
      <path d="M 30.609375 48.390625 
Q 23.390625 48.390625 19.1875 42.75 
Q 14.984375 37.109375 14.984375 27.296875 
Q 14.984375 17.484375 19.15625 11.84375 
Q 23.34375 6.203125 30.609375 6.203125 
Q 37.796875 6.203125 41.984375 11.859375 
Q 46.1875 17.53125 46.1875 27.296875 
Q 46.1875 37.015625 41.984375 42.703125 
Q 37.796875 48.390625 30.609375 48.390625 
z
M 30.609375 56 
Q 42.328125 56 49.015625 48.375 
Q 55.71875 40.765625 55.71875 27.296875 
Q 55.71875 13.875 49.015625 6.21875 
Q 42.328125 -1.421875 30.609375 -1.421875 
Q 18.84375 -1.421875 12.171875 6.21875 
Q 5.515625 13.875 5.515625 27.296875 
Q 5.515625 40.765625 12.171875 48.375 
Q 18.84375 56 30.609375 56 
z
" id="DejaVuSans-111"/>
      <path d="M 37.109375 75.984375 
L 37.109375 68.5 
L 28.515625 68.5 
Q 23.6875 68.5 21.796875 66.546875 
Q 19.921875 64.59375 19.921875 59.515625 
L 19.921875 54.6875 
L 34.71875 54.6875 
L 34.71875 47.703125 
L 19.921875 47.703125 
L 19.921875 0 
L 10.890625 0 
L 10.890625 47.703125 
L 2.296875 47.703125 
L 2.296875 54.6875 
L 10.890625 54.6875 
L 10.890625 58.5 
Q 10.890625 67.625 15.140625 71.796875 
Q 19.390625 75.984375 28.609375 75.984375 
z
" id="DejaVuSans-102"/>
      <path d="M 48.78125 52.59375 
L 48.78125 44.1875 
Q 44.96875 46.296875 41.140625 47.34375 
Q 37.3125 48.390625 33.40625 48.390625 
Q 24.65625 48.390625 19.8125 42.84375 
Q 14.984375 37.3125 14.984375 27.296875 
Q 14.984375 17.28125 19.8125 11.734375 
Q 24.65625 6.203125 33.40625 6.203125 
Q 37.3125 6.203125 41.140625 7.25 
Q 44.96875 8.296875 48.78125 10.40625 
L 48.78125 2.09375 
Q 45.015625 0.34375 40.984375 -0.53125 
Q 36.96875 -1.421875 32.421875 -1.421875 
Q 20.0625 -1.421875 12.78125 6.34375 
Q 5.515625 14.109375 5.515625 27.296875 
Q 5.515625 40.671875 12.859375 48.328125 
Q 20.21875 56 33.015625 56 
Q 37.15625 56 41.109375 55.140625 
Q 45.0625 54.296875 48.78125 52.59375 
z
" id="DejaVuSans-99"/>
      <path d="M 54.890625 33.015625 
L 54.890625 0 
L 45.90625 0 
L 45.90625 32.71875 
Q 45.90625 40.484375 42.875 44.328125 
Q 39.84375 48.1875 33.796875 48.1875 
Q 26.515625 48.1875 22.3125 43.546875 
Q 18.109375 38.921875 18.109375 30.90625 
L 18.109375 0 
L 9.078125 0 
L 9.078125 75.984375 
L 18.109375 75.984375 
L 18.109375 46.1875 
Q 21.34375 51.125 25.703125 53.5625 
Q 30.078125 56 35.796875 56 
Q 45.21875 56 50.046875 50.171875 
Q 54.890625 44.34375 54.890625 33.015625 
z
" id="DejaVuSans-104"/>
      <path d="M 9.421875 54.6875 
L 18.40625 54.6875 
L 18.40625 0 
L 9.421875 0 
z
M 9.421875 75.984375 
L 18.40625 75.984375 
L 18.40625 64.59375 
L 9.421875 64.59375 
z
" id="DejaVuSans-105"/>
      <path d="M 34.28125 27.484375 
Q 23.390625 27.484375 19.1875 25 
Q 14.984375 22.515625 14.984375 16.5 
Q 14.984375 11.71875 18.140625 8.90625 
Q 21.296875 6.109375 26.703125 6.109375 
Q 34.1875 6.109375 38.703125 11.40625 
Q 43.21875 16.703125 43.21875 25.484375 
L 43.21875 27.484375 
z
M 52.203125 31.203125 
L 52.203125 0 
L 43.21875 0 
L 43.21875 8.296875 
Q 40.140625 3.328125 35.546875 0.953125 
Q 30.953125 -1.421875 24.3125 -1.421875 
Q 15.921875 -1.421875 10.953125 3.296875 
Q 6 8.015625 6 15.921875 
Q 6 25.140625 12.171875 29.828125 
Q 18.359375 34.515625 30.609375 34.515625 
L 43.21875 34.515625 
L 43.21875 35.40625 
Q 43.21875 41.609375 39.140625 45 
Q 35.0625 48.390625 27.6875 48.390625 
Q 23 48.390625 18.546875 47.265625 
Q 14.109375 46.140625 10.015625 43.890625 
L 10.015625 52.203125 
Q 14.9375 54.109375 19.578125 55.046875 
Q 24.21875 56 28.609375 56 
Q 40.484375 56 46.34375 49.84375 
Q 52.203125 43.703125 52.203125 31.203125 
z
" id="DejaVuSans-97"/>
      <path d="M 9.421875 75.984375 
L 18.40625 75.984375 
L 18.40625 0 
L 9.421875 0 
z
" id="DejaVuSans-108"/>
      <path d="M 44.28125 53.078125 
L 44.28125 44.578125 
Q 40.484375 46.53125 36.375 47.5 
Q 32.28125 48.484375 27.875 48.484375 
Q 21.1875 48.484375 17.84375 46.4375 
Q 14.5 44.390625 14.5 40.28125 
Q 14.5 37.15625 16.890625 35.375 
Q 19.28125 33.59375 26.515625 31.984375 
L 29.59375 31.296875 
Q 39.15625 29.25 43.1875 25.515625 
Q 47.21875 21.78125 47.21875 15.09375 
Q 47.21875 7.46875 41.1875 3.015625 
Q 35.15625 -1.421875 24.609375 -1.421875 
Q 20.21875 -1.421875 15.453125 -0.5625 
Q 10.6875 0.296875 5.421875 2 
L 5.421875 11.28125 
Q 10.40625 8.6875 15.234375 7.390625 
Q 20.0625 6.109375 24.8125 6.109375 
Q 31.15625 6.109375 34.5625 8.28125 
Q 37.984375 10.453125 37.984375 14.40625 
Q 37.984375 18.0625 35.515625 20.015625 
Q 33.0625 21.96875 24.703125 23.78125 
L 21.578125 24.515625 
Q 13.234375 26.265625 9.515625 29.90625 
Q 5.8125 33.546875 5.8125 39.890625 
Q 5.8125 47.609375 11.28125 51.796875 
Q 16.75 56 26.8125 56 
Q 31.78125 56 36.171875 55.265625 
Q 40.578125 54.546875 44.28125 53.078125 
z
" id="DejaVuSans-115"/>
      <path d="M 31 75.875 
Q 24.46875 64.65625 21.28125 53.65625 
Q 18.109375 42.671875 18.109375 31.390625 
Q 18.109375 20.125 21.3125 9.0625 
Q 24.515625 -2 31 -13.1875 
L 23.1875 -13.1875 
Q 15.875 -1.703125 12.234375 9.375 
Q 8.59375 20.453125 8.59375 31.390625 
Q 8.59375 42.28125 12.203125 53.3125 
Q 15.828125 64.359375 23.1875 75.875 
z
" id="DejaVuSans-40"/>
      <path d="M 55.71875 33.015625 
L 49.3125 0 
L 40.28125 0 
L 46.6875 32.671875 
Q 47.125 34.96875 47.359375 36.71875 
Q 47.609375 38.484375 47.609375 39.5 
Q 47.609375 43.609375 45.015625 45.890625 
Q 42.4375 48.1875 37.796875 48.1875 
Q 30.5625 48.1875 25.34375 43.375 
Q 20.125 38.578125 18.5 30.328125 
L 12.5 0 
L 3.515625 0 
L 14.109375 54.6875 
L 23.09375 54.6875 
L 21.296875 46.09375 
Q 25.046875 50.828125 30.3125 53.40625 
Q 35.59375 56 41.40625 56 
Q 48.640625 56 52.609375 52.09375 
Q 56.59375 48.1875 56.59375 41.109375 
Q 56.59375 39.359375 56.375 37.359375 
Q 56.15625 35.359375 55.71875 33.015625 
z
" id="DejaVuSans-Oblique-110"/>
      <path d="M 8.015625 75.875 
L 15.828125 75.875 
Q 23.140625 64.359375 26.78125 53.3125 
Q 30.421875 42.28125 30.421875 31.390625 
Q 30.421875 20.453125 26.78125 9.375 
Q 23.140625 -1.703125 15.828125 -13.1875 
L 8.015625 -13.1875 
Q 14.5 -2 17.703125 9.0625 
Q 20.90625 20.125 20.90625 31.390625 
Q 20.90625 42.671875 17.703125 53.65625 
Q 14.5 64.65625 8.015625 75.875 
z
" id="DejaVuSans-41"/>
     </defs>
     <g style="fill:#262626;" transform="translate(79.18902 616.464063)scale(0.12 -0.12)">
      <use transform="translate(0 0.015625)" xlink:href="#DejaVuSans-78"/>
      <use transform="translate(74.804688 0.015625)" xlink:href="#DejaVuSans-117"/>
      <use transform="translate(138.183594 0.015625)" xlink:href="#DejaVuSans-109"/>
      <use transform="translate(235.595703 0.015625)" xlink:href="#DejaVuSans-98"/>
      <use transform="translate(299.072266 0.015625)" xlink:href="#DejaVuSans-101"/>
      <use transform="translate(360.595703 0.015625)" xlink:href="#DejaVuSans-114"/>
      <use transform="translate(401.708984 0.015625)" xlink:href="#DejaVuSans-32"/>
      <use transform="translate(433.496094 0.015625)" xlink:href="#DejaVuSans-111"/>
      <use transform="translate(494.677734 0.015625)" xlink:href="#DejaVuSans-102"/>
      <use transform="translate(529.882812 0.015625)" xlink:href="#DejaVuSans-32"/>
      <use transform="translate(561.669922 0.015625)" xlink:href="#DejaVuSans-99"/>
      <use transform="translate(616.650391 0.015625)" xlink:href="#DejaVuSans-104"/>
      <use transform="translate(680.029297 0.015625)" xlink:href="#DejaVuSans-101"/>
      <use transform="translate(741.552734 0.015625)" xlink:href="#DejaVuSans-109"/>
      <use transform="translate(838.964844 0.015625)" xlink:href="#DejaVuSans-105"/>
      <use transform="translate(866.748047 0.015625)" xlink:href="#DejaVuSans-99"/>
      <use transform="translate(921.728516 0.015625)" xlink:href="#DejaVuSans-97"/>
      <use transform="translate(983.007812 0.015625)" xlink:href="#DejaVuSans-108"/>
      <use transform="translate(1010.791016 0.015625)" xlink:href="#DejaVuSans-115"/>
      <use transform="translate(1062.890625 0.015625)" xlink:href="#DejaVuSans-32"/>
      <use transform="translate(1094.677734 0.015625)" xlink:href="#DejaVuSans-40"/>
      <use transform="translate(1133.691406 0.015625)" xlink:href="#DejaVuSans-Oblique-110"/>
      <use transform="translate(1197.070312 0.015625)" xlink:href="#DejaVuSans-41"/>
     </g>
    </g>
   </g>
   <g id="matplotlib.axis_14">
    <g id="ytick_19">
     <g id="line2d_40">
      <path clip-path="url(#p988fdc7da4)" d="M 74.819584 564.849346 
L 231.998457 564.849346 
" style="fill:none;stroke:#cccccc;stroke-linecap:round;"/>
     </g>
     <g id="text_19">
      <!-- −0.5 -->
      <g style="fill:#262626;" transform="translate(38.60849 569.028487)scale(0.11 -0.11)">
       <use xlink:href="#DejaVuSans-8722"/>
       <use x="83.789062" xlink:href="#DejaVuSans-48"/>
       <use x="147.412109" xlink:href="#DejaVuSans-46"/>
       <use x="179.199219" xlink:href="#DejaVuSans-53"/>
      </g>
     </g>
    </g>
    <g id="ytick_20">
     <g id="line2d_41">
      <path clip-path="url(#p988fdc7da4)" d="M 74.819584 519.750128 
L 231.998457 519.750128 
" style="fill:none;stroke:#cccccc;stroke-linecap:round;"/>
     </g>
     <g id="text_20">
      <!-- 0.0 -->
      <g style="fill:#262626;" transform="translate(47.826147 523.929269)scale(0.11 -0.11)">
       <use xlink:href="#DejaVuSans-48"/>
       <use x="63.623047" xlink:href="#DejaVuSans-46"/>
       <use x="95.410156" xlink:href="#DejaVuSans-48"/>
      </g>
     </g>
    </g>
    <g id="ytick_21">
     <g id="line2d_42">
      <path clip-path="url(#p988fdc7da4)" d="M 74.819584 474.650911 
L 231.998457 474.650911 
" style="fill:none;stroke:#cccccc;stroke-linecap:round;"/>
     </g>
     <g id="text_21">
      <!-- 0.5 -->
      <g style="fill:#262626;" transform="translate(47.826147 478.830051)scale(0.11 -0.11)">
       <use xlink:href="#DejaVuSans-48"/>
       <use x="63.623047" xlink:href="#DejaVuSans-46"/>
       <use x="95.410156" xlink:href="#DejaVuSans-53"/>
      </g>
     </g>
    </g>
    <g id="text_22">
     <!-- $\rho_p$ -->
     <g style="fill:#262626;" transform="translate(30.88849 533.16)rotate(-90)scale(0.12 -0.12)">
      <use xlink:href="#DejaVuSans-Oblique-961"/>
      <use transform="translate(63.476562 -16.40625)scale(0.7)" xlink:href="#DejaVuSans-Oblique-112"/>
     </g>
    </g>
   </g>
   <g id="PathCollection_90">
    <path clip-path="url(#p988fdc7da4)" d="M 191.692869 541.056258 
C 192.488478 541.056258 193.251609 540.740159 193.814189 540.177578 
C 194.37677 539.614998 194.692869 538.851867 194.692869 538.056258 
C 194.692869 537.260649 194.37677 536.497518 193.814189 535.934938 
C 193.251609 535.372357 192.488478 535.056258 191.692869 535.056258 
C 190.89726 535.056258 190.13413 535.372357 189.571549 535.934938 
C 189.008968 536.497518 188.692869 537.260649 188.692869 538.056258 
C 188.692869 538.851867 189.008968 539.614998 189.571549 540.177578 
C 190.13413 540.740159 190.89726 541.056258 191.692869 541.056258 
z
" style="fill:#4c72b0;stroke:#ffffff;stroke-width:0.75;"/>
    <path clip-path="url(#p988fdc7da4)" d="M 191.692869 546.359764 
L 194.692869 540.359764 
L 188.692869 540.359764 
z
" style="fill:#4c72b0;stroke:#ffffff;stroke-width:0.75;"/>
    <path clip-path="url(#p988fdc7da4)" d="M 218.429535 524.405951 
L 215.429535 530.405951 
L 221.429535 530.405951 
z
" style="fill:#4c72b0;stroke:#ffffff;stroke-width:0.75;"/>
   </g>
   <g id="PathCollection_91"/>
   <g id="PathCollection_92"/>
   <g id="PathCollection_93"/>
   <g id="PathCollection_94"/>
   <g id="PathCollection_95">
    <path clip-path="url(#p988fdc7da4)" d="M 191.692869 529.752572 
C 192.488478 529.752572 193.251609 529.436473 193.814189 528.873893 
C 194.37677 528.311312 194.692869 527.548182 194.692869 526.752572 
C 194.692869 525.956963 194.37677 525.193833 193.814189 524.631252 
C 193.251609 524.068671 192.488478 523.752572 191.692869 523.752572 
C 190.89726 523.752572 190.13413 524.068671 189.571549 524.631252 
C 189.008968 525.193833 188.692869 525.956963 188.692869 526.752572 
C 188.692869 527.548182 189.008968 528.311312 189.571549 528.873893 
C 190.13413 529.436473 190.89726 529.752572 191.692869 529.752572 
z
" style="fill:#dd8452;stroke:#ffffff;stroke-width:0.75;"/>
    <path clip-path="url(#p988fdc7da4)" d="M 191.692869 532.1192 
L 194.692869 526.1192 
L 188.692869 526.1192 
z
" style="fill:#dd8452;stroke:#ffffff;stroke-width:0.75;"/>
    <path clip-path="url(#p988fdc7da4)" d="M 218.429535 507.934953 
L 215.429535 513.934953 
L 221.429535 513.934953 
z
" style="fill:#dd8452;stroke:#ffffff;stroke-width:0.75;"/>
   </g>
   <g id="PathCollection_96"/>
   <g id="PathCollection_97"/>
   <g id="PathCollection_98"/>
   <g id="PathCollection_99"/>
   <g id="PathCollection_100">
    <path clip-path="url(#p988fdc7da4)" d="M 191.692869 541.658981 
C 192.488478 541.658981 193.251609 541.342882 193.814189 540.780301 
C 194.37677 540.217721 194.692869 539.45459 194.692869 538.658981 
C 194.692869 537.863372 194.37677 537.100241 193.814189 536.537661 
C 193.251609 535.97508 192.488478 535.658981 191.692869 535.658981 
C 190.89726 535.658981 190.13413 535.97508 189.571549 536.537661 
C 189.008968 537.100241 188.692869 537.863372 188.692869 538.658981 
C 188.692869 539.45459 189.008968 540.217721 189.571549 540.780301 
C 190.13413 541.342882 190.89726 541.658981 191.692869 541.658981 
z
" style="fill:#55a868;stroke:#ffffff;stroke-width:0.75;"/>
    <path clip-path="url(#p988fdc7da4)" d="M 191.692869 537.346794 
L 194.692869 531.346794 
L 188.692869 531.346794 
z
" style="fill:#55a868;stroke:#ffffff;stroke-width:0.75;"/>
    <path clip-path="url(#p988fdc7da4)" d="M 218.429535 525.715028 
L 215.429535 531.715028 
L 221.429535 531.715028 
z
" style="fill:#55a868;stroke:#ffffff;stroke-width:0.75;"/>
   </g>
   <g id="PathCollection_101"/>
   <g id="PathCollection_102"/>
   <g id="PathCollection_103"/>
   <g id="PathCollection_104"/>
   <g id="patch_21">
    <path d="M 74.819584 583.2 
L 74.819584 469.8 
" style="fill:none;stroke:#cccccc;stroke-linecap:square;stroke-linejoin:miter;stroke-width:1.25;"/>
   </g>
   <g id="patch_22">
    <path d="M 74.819584 583.2 
L 231.998457 583.2 
" style="fill:none;stroke:#cccccc;stroke-linecap:square;stroke-linejoin:miter;stroke-width:1.25;"/>
   </g>
   <g id="text_23">
    <!-- NVS -->
    <defs>
     <path d="M 28.609375 0 
L 0.78125 72.90625 
L 11.078125 72.90625 
L 34.1875 11.53125 
L 57.328125 72.90625 
L 67.578125 72.90625 
L 39.796875 0 
z
" id="DejaVuSans-86"/>
    </defs>
    <g style="fill:#262626;" transform="translate(141.006833 463.8)scale(0.12 -0.12)">
     <use xlink:href="#DejaVuSans-78"/>
     <use x="74.804688" xlink:href="#DejaVuSans-86"/>
     <use x="143.212891" xlink:href="#DejaVuSans-83"/>
    </g>
   </g>
  </g>
  <g id="axes_8">
   <g id="patch_23">
    <path d="M 279.152119 583.2 
L 436.330991 583.2 
L 436.330991 469.8 
L 279.152119 469.8 
z
" style="fill:#ffffff;"/>
   </g>
   <g id="matplotlib.axis_15">
    <g id="xtick_22">
     <g id="line2d_43">
      <path clip-path="url(#pa69b108329)" d="M 299.773406 583.2 
L 299.773406 469.8 
" style="fill:none;stroke:#cccccc;stroke-linecap:round;"/>
     </g>
     <g id="text_24">
      <!-- 10 -->
      <g style="fill:#262626;" transform="translate(292.774656 601.058281)scale(0.11 -0.11)">
       <use xlink:href="#DejaVuSans-49"/>
       <use x="63.623047" xlink:href="#DejaVuSans-48"/>
      </g>
     </g>
    </g>
    <g id="xtick_23">
     <g id="line2d_44">
      <path clip-path="url(#pa69b108329)" d="M 353.246738 583.2 
L 353.246738 469.8 
" style="fill:none;stroke:#cccccc;stroke-linecap:round;"/>
     </g>
     <g id="text_25">
      <!-- 20 -->
      <g style="fill:#262626;" transform="translate(346.247988 601.058281)scale(0.11 -0.11)">
       <use xlink:href="#DejaVuSans-50"/>
       <use x="63.623047" xlink:href="#DejaVuSans-48"/>
      </g>
     </g>
    </g>
    <g id="xtick_24">
     <g id="line2d_45">
      <path clip-path="url(#pa69b108329)" d="M 406.72007 583.2 
L 406.72007 469.8 
" style="fill:none;stroke:#cccccc;stroke-linecap:round;"/>
     </g>
     <g id="text_26">
      <!-- 30 -->
      <g style="fill:#262626;" transform="translate(399.72132 601.058281)scale(0.11 -0.11)">
       <use xlink:href="#DejaVuSans-51"/>
       <use x="63.623047" xlink:href="#DejaVuSans-48"/>
      </g>
     </g>
    </g>
    <g id="text_27">
     <!-- Number of chemicals ($n$) -->
     <g style="fill:#262626;" transform="translate(283.521555 616.464063)scale(0.12 -0.12)">
      <use transform="translate(0 0.015625)" xlink:href="#DejaVuSans-78"/>
      <use transform="translate(74.804688 0.015625)" xlink:href="#DejaVuSans-117"/>
      <use transform="translate(138.183594 0.015625)" xlink:href="#DejaVuSans-109"/>
      <use transform="translate(235.595703 0.015625)" xlink:href="#DejaVuSans-98"/>
      <use transform="translate(299.072266 0.015625)" xlink:href="#DejaVuSans-101"/>
      <use transform="translate(360.595703 0.015625)" xlink:href="#DejaVuSans-114"/>
      <use transform="translate(401.708984 0.015625)" xlink:href="#DejaVuSans-32"/>
      <use transform="translate(433.496094 0.015625)" xlink:href="#DejaVuSans-111"/>
      <use transform="translate(494.677734 0.015625)" xlink:href="#DejaVuSans-102"/>
      <use transform="translate(529.882812 0.015625)" xlink:href="#DejaVuSans-32"/>
      <use transform="translate(561.669922 0.015625)" xlink:href="#DejaVuSans-99"/>
      <use transform="translate(616.650391 0.015625)" xlink:href="#DejaVuSans-104"/>
      <use transform="translate(680.029297 0.015625)" xlink:href="#DejaVuSans-101"/>
      <use transform="translate(741.552734 0.015625)" xlink:href="#DejaVuSans-109"/>
      <use transform="translate(838.964844 0.015625)" xlink:href="#DejaVuSans-105"/>
      <use transform="translate(866.748047 0.015625)" xlink:href="#DejaVuSans-99"/>
      <use transform="translate(921.728516 0.015625)" xlink:href="#DejaVuSans-97"/>
      <use transform="translate(983.007812 0.015625)" xlink:href="#DejaVuSans-108"/>
      <use transform="translate(1010.791016 0.015625)" xlink:href="#DejaVuSans-115"/>
      <use transform="translate(1062.890625 0.015625)" xlink:href="#DejaVuSans-32"/>
      <use transform="translate(1094.677734 0.015625)" xlink:href="#DejaVuSans-40"/>
      <use transform="translate(1133.691406 0.015625)" xlink:href="#DejaVuSans-Oblique-110"/>
      <use transform="translate(1197.070312 0.015625)" xlink:href="#DejaVuSans-41"/>
     </g>
    </g>
   </g>
   <g id="matplotlib.axis_16">
    <g id="ytick_22">
     <g id="line2d_46">
      <path clip-path="url(#pa69b108329)" d="M 279.152119 564.849346 
L 436.330991 564.849346 
" style="fill:none;stroke:#cccccc;stroke-linecap:round;"/>
     </g>
    </g>
    <g id="ytick_23">
     <g id="line2d_47">
      <path clip-path="url(#pa69b108329)" d="M 279.152119 519.750128 
L 436.330991 519.750128 
" style="fill:none;stroke:#cccccc;stroke-linecap:round;"/>
     </g>
    </g>
    <g id="ytick_24">
     <g id="line2d_48">
      <path clip-path="url(#pa69b108329)" d="M 279.152119 474.650911 
L 436.330991 474.650911 
" style="fill:none;stroke:#cccccc;stroke-linecap:round;"/>
     </g>
    </g>
   </g>
   <g id="PathCollection_105">
    <path clip-path="url(#pa69b108329)" d="M 369.288738 534.78322 
C 370.084347 534.78322 370.847477 534.467121 371.410058 533.90454 
C 371.972639 533.341959 372.288738 532.578829 372.288738 531.78322 
C 372.288738 530.987611 371.972639 530.22448 371.410058 529.6619 
C 370.847477 529.099319 370.084347 528.78322 369.288738 528.78322 
C 368.493128 528.78322 367.729998 529.099319 367.167417 529.6619 
C 366.604837 530.22448 366.288738 530.987611 366.288738 531.78322 
C 366.288738 532.578829 366.604837 533.341959 367.167417 533.90454 
C 367.729998 534.467121 368.493128 534.78322 369.288738 534.78322 
z
" style="fill:#4c72b0;stroke:#ffffff;stroke-width:0.75;"/>
    <path clip-path="url(#pa69b108329)" d="M 358.594071 553.167335 
L 361.594071 547.167335 
L 355.594071 547.167335 
z
" style="fill:#4c72b0;stroke:#ffffff;stroke-width:0.75;"/>
    <path clip-path="url(#pa69b108329)" d="M 374.636071 551.652591 
L 371.636071 557.652591 
L 377.636071 557.652591 
z
" style="fill:#4c72b0;stroke:#ffffff;stroke-width:0.75;"/>
   </g>
   <g id="PathCollection_106"/>
   <g id="PathCollection_107"/>
   <g id="PathCollection_108"/>
   <g id="PathCollection_109"/>
   <g id="PathCollection_110">
    <path clip-path="url(#pa69b108329)" d="M 369.288738 538.946466 
C 370.084347 538.946466 370.847477 538.630368 371.410058 538.067787 
C 371.972639 537.505206 372.288738 536.742076 372.288738 535.946466 
C 372.288738 535.150857 371.972639 534.387727 371.410058 533.825146 
C 370.847477 533.262565 370.084347 532.946466 369.288738 532.946466 
C 368.493128 532.946466 367.729998 533.262565 367.167417 533.825146 
C 366.604837 534.387727 366.288738 535.150857 366.288738 535.946466 
C 366.288738 536.742076 366.604837 537.505206 367.167417 538.067787 
C 367.729998 538.630368 368.493128 538.946466 369.288738 538.946466 
z
" style="fill:#dd8452;stroke:#ffffff;stroke-width:0.75;"/>
    <path clip-path="url(#pa69b108329)" d="M 358.594071 556.955099 
L 361.594071 550.955099 
L 355.594071 550.955099 
z
" style="fill:#dd8452;stroke:#ffffff;stroke-width:0.75;"/>
    <path clip-path="url(#pa69b108329)" d="M 374.636071 555.241495 
L 371.636071 561.241495 
L 377.636071 561.241495 
z
" style="fill:#dd8452;stroke:#ffffff;stroke-width:0.75;"/>
   </g>
   <g id="PathCollection_111"/>
   <g id="PathCollection_112"/>
   <g id="PathCollection_113"/>
   <g id="PathCollection_114"/>
   <g id="PathCollection_115">
    <path clip-path="url(#pa69b108329)" d="M 369.288738 513.073081 
C 370.084347 513.073081 370.847477 512.756982 371.410058 512.194401 
C 371.972639 511.631821 372.288738 510.86869 372.288738 510.073081 
C 372.288738 509.277472 371.972639 508.514341 371.410058 507.951761 
C 370.847477 507.38918 370.084347 507.073081 369.288738 507.073081 
C 368.493128 507.073081 367.729998 507.38918 367.167417 507.951761 
C 366.604837 508.514341 366.288738 509.277472 366.288738 510.073081 
C 366.288738 510.86869 366.604837 511.631821 367.167417 512.194401 
C 367.729998 512.756982 368.493128 513.073081 369.288738 513.073081 
z
" style="fill:#55a868;stroke:#ffffff;stroke-width:0.75;"/>
    <path clip-path="url(#pa69b108329)" d="M 358.594071 573.472898 
L 361.594071 567.472898 
L 355.594071 567.472898 
z
" style="fill:#55a868;stroke:#ffffff;stroke-width:0.75;"/>
    <path clip-path="url(#pa69b108329)" d="M 374.636071 525.813826 
L 371.636071 531.813826 
L 377.636071 531.813826 
z
" style="fill:#55a868;stroke:#ffffff;stroke-width:0.75;"/>
   </g>
   <g id="PathCollection_116"/>
   <g id="PathCollection_117"/>
   <g id="PathCollection_118"/>
   <g id="PathCollection_119"/>
   <g id="patch_24">
    <path d="M 279.152119 583.2 
L 279.152119 469.8 
" style="fill:none;stroke:#cccccc;stroke-linecap:square;stroke-linejoin:miter;stroke-width:1.25;"/>
   </g>
   <g id="patch_25">
    <path d="M 279.152119 583.2 
L 436.330991 583.2 
" style="fill:none;stroke:#cccccc;stroke-linecap:square;stroke-linejoin:miter;stroke-width:1.25;"/>
   </g>
   <g id="text_28">
    <!-- OT -->
    <g style="fill:#262626;" transform="translate(349.353742 463.8)scale(0.12 -0.12)">
     <use xlink:href="#DejaVuSans-79"/>
     <use x="78.710938" xlink:href="#DejaVuSans-84"/>
    </g>
   </g>
  </g>
  <g id="axes_9">
   <g id="patch_26">
    <path d="M 483.484653 583.2 
L 640.663526 583.2 
L 640.663526 469.8 
L 483.484653 469.8 
z
" style="fill:#ffffff;"/>
   </g>
   <g id="matplotlib.axis_17">
    <g id="xtick_25">
     <g id="line2d_49">
      <path clip-path="url(#p35fca358e7)" d="M 504.105941 583.2 
L 504.105941 469.8 
" style="fill:none;stroke:#cccccc;stroke-linecap:round;"/>
     </g>
     <g id="text_29">
      <!-- 10 -->
      <g style="fill:#262626;" transform="translate(497.107191 601.058281)scale(0.11 -0.11)">
       <use xlink:href="#DejaVuSans-49"/>
       <use x="63.623047" xlink:href="#DejaVuSans-48"/>
      </g>
     </g>
    </g>
    <g id="xtick_26">
     <g id="line2d_50">
      <path clip-path="url(#p35fca358e7)" d="M 557.579273 583.2 
L 557.579273 469.8 
" style="fill:none;stroke:#cccccc;stroke-linecap:round;"/>
     </g>
     <g id="text_30">
      <!-- 20 -->
      <g style="fill:#262626;" transform="translate(550.580523 601.058281)scale(0.11 -0.11)">
       <use xlink:href="#DejaVuSans-50"/>
       <use x="63.623047" xlink:href="#DejaVuSans-48"/>
      </g>
     </g>
    </g>
    <g id="xtick_27">
     <g id="line2d_51">
      <path clip-path="url(#p35fca358e7)" d="M 611.052604 583.2 
L 611.052604 469.8 
" style="fill:none;stroke:#cccccc;stroke-linecap:round;"/>
     </g>
     <g id="text_31">
      <!-- 30 -->
      <g style="fill:#262626;" transform="translate(604.053854 601.058281)scale(0.11 -0.11)">
       <use xlink:href="#DejaVuSans-51"/>
       <use x="63.623047" xlink:href="#DejaVuSans-48"/>
      </g>
     </g>
    </g>
    <g id="text_32">
     <!-- Number of chemicals ($n$) -->
     <g style="fill:#262626;" transform="translate(487.854089 616.464063)scale(0.12 -0.12)">
      <use transform="translate(0 0.015625)" xlink:href="#DejaVuSans-78"/>
      <use transform="translate(74.804688 0.015625)" xlink:href="#DejaVuSans-117"/>
      <use transform="translate(138.183594 0.015625)" xlink:href="#DejaVuSans-109"/>
      <use transform="translate(235.595703 0.015625)" xlink:href="#DejaVuSans-98"/>
      <use transform="translate(299.072266 0.015625)" xlink:href="#DejaVuSans-101"/>
      <use transform="translate(360.595703 0.015625)" xlink:href="#DejaVuSans-114"/>
      <use transform="translate(401.708984 0.015625)" xlink:href="#DejaVuSans-32"/>
      <use transform="translate(433.496094 0.015625)" xlink:href="#DejaVuSans-111"/>
      <use transform="translate(494.677734 0.015625)" xlink:href="#DejaVuSans-102"/>
      <use transform="translate(529.882812 0.015625)" xlink:href="#DejaVuSans-32"/>
      <use transform="translate(561.669922 0.015625)" xlink:href="#DejaVuSans-99"/>
      <use transform="translate(616.650391 0.015625)" xlink:href="#DejaVuSans-104"/>
      <use transform="translate(680.029297 0.015625)" xlink:href="#DejaVuSans-101"/>
      <use transform="translate(741.552734 0.015625)" xlink:href="#DejaVuSans-109"/>
      <use transform="translate(838.964844 0.015625)" xlink:href="#DejaVuSans-105"/>
      <use transform="translate(866.748047 0.015625)" xlink:href="#DejaVuSans-99"/>
      <use transform="translate(921.728516 0.015625)" xlink:href="#DejaVuSans-97"/>
      <use transform="translate(983.007812 0.015625)" xlink:href="#DejaVuSans-108"/>
      <use transform="translate(1010.791016 0.015625)" xlink:href="#DejaVuSans-115"/>
      <use transform="translate(1062.890625 0.015625)" xlink:href="#DejaVuSans-32"/>
      <use transform="translate(1094.677734 0.015625)" xlink:href="#DejaVuSans-40"/>
      <use transform="translate(1133.691406 0.015625)" xlink:href="#DejaVuSans-Oblique-110"/>
      <use transform="translate(1197.070312 0.015625)" xlink:href="#DejaVuSans-41"/>
     </g>
    </g>
   </g>
   <g id="matplotlib.axis_18">
    <g id="ytick_25">
     <g id="line2d_52">
      <path clip-path="url(#p35fca358e7)" d="M 483.484653 564.849346 
L 640.663526 564.849346 
" style="fill:none;stroke:#cccccc;stroke-linecap:round;"/>
     </g>
    </g>
    <g id="ytick_26">
     <g id="line2d_53">
      <path clip-path="url(#p35fca358e7)" d="M 483.484653 519.750128 
L 640.663526 519.750128 
" style="fill:none;stroke:#cccccc;stroke-linecap:round;"/>
     </g>
    </g>
    <g id="ytick_27">
     <g id="line2d_54">
      <path clip-path="url(#p35fca358e7)" d="M 483.484653 474.650911 
L 640.663526 474.650911 
" style="fill:none;stroke:#cccccc;stroke-linecap:round;"/>
     </g>
    </g>
    <g id="text_33">
     <!-- $\rho_p$ -->
     <g style="fill:#262626;" transform="translate(475.764653 533.16)rotate(-90)scale(0.12 -0.12)">
      <use xlink:href="#DejaVuSans-Oblique-961"/>
      <use transform="translate(63.476562 -16.40625)scale(0.7)" xlink:href="#DejaVuSans-Oblique-112"/>
     </g>
    </g>
   </g>
   <g id="patch_27">
    <path d="M 483.484653 583.2 
L 483.484653 469.8 
" style="fill:none;stroke:#cccccc;stroke-linecap:square;stroke-linejoin:miter;stroke-width:1.25;"/>
   </g>
   <g id="patch_28">
    <path d="M 483.484653 583.2 
L 640.663526 583.2 
" style="fill:none;stroke:#cccccc;stroke-linecap:square;stroke-linejoin:miter;stroke-width:1.25;"/>
   </g>
   <g id="text_34">
    <!-- TOX21 -->
    <g style="fill:#262626;" transform="translate(541.946902 463.8)scale(0.12 -0.12)">
     <use xlink:href="#DejaVuSans-84"/>
     <use x="61.083984" xlink:href="#DejaVuSans-79"/>
     <use x="139.701172" xlink:href="#DejaVuSans-88"/>
     <use x="208.207031" xlink:href="#DejaVuSans-50"/>
     <use x="271.830078" xlink:href="#DejaVuSans-49"/>
    </g>
   </g>
  </g>
  <g id="legend_1">
   <g id="text_35">
    <!-- Potency -->
    <defs>
     <path d="M 18.3125 70.21875 
L 18.3125 54.6875 
L 36.8125 54.6875 
L 36.8125 47.703125 
L 18.3125 47.703125 
L 18.3125 18.015625 
Q 18.3125 11.328125 20.140625 9.421875 
Q 21.96875 7.515625 27.59375 7.515625 
L 36.8125 7.515625 
L 36.8125 0 
L 27.59375 0 
Q 17.1875 0 13.234375 3.875 
Q 9.28125 7.765625 9.28125 18.015625 
L 9.28125 47.703125 
L 2.6875 47.703125 
L 2.6875 54.6875 
L 9.28125 54.6875 
L 9.28125 70.21875 
z
" id="DejaVuSans-116"/>
     <path d="M 54.890625 33.015625 
L 54.890625 0 
L 45.90625 0 
L 45.90625 32.71875 
Q 45.90625 40.484375 42.875 44.328125 
Q 39.84375 48.1875 33.796875 48.1875 
Q 26.515625 48.1875 22.3125 43.546875 
Q 18.109375 38.921875 18.109375 30.90625 
L 18.109375 0 
L 9.078125 0 
L 9.078125 54.6875 
L 18.109375 54.6875 
L 18.109375 46.1875 
Q 21.34375 51.125 25.703125 53.5625 
Q 30.078125 56 35.796875 56 
Q 45.21875 56 50.046875 50.171875 
Q 54.890625 44.34375 54.890625 33.015625 
z
" id="DejaVuSans-110"/>
     <path d="M 32.171875 -5.078125 
Q 28.375 -14.84375 24.75 -17.8125 
Q 21.140625 -20.796875 15.09375 -20.796875 
L 7.90625 -20.796875 
L 7.90625 -13.28125 
L 13.1875 -13.28125 
Q 16.890625 -13.28125 18.9375 -11.515625 
Q 21 -9.765625 23.484375 -3.21875 
L 25.09375 0.875 
L 2.984375 54.6875 
L 12.5 54.6875 
L 29.59375 11.921875 
L 46.6875 54.6875 
L 56.203125 54.6875 
z
" id="DejaVuSans-121"/>
    </defs>
    <g style="fill:#262626;" transform="translate(665.796775 300.912141)scale(0.102 -0.102)">
     <use xlink:href="#DejaVuSans-80"/>
     <use x="60.255859" xlink:href="#DejaVuSans-111"/>
     <use x="121.4375" xlink:href="#DejaVuSans-116"/>
     <use x="160.646484" xlink:href="#DejaVuSans-101"/>
     <use x="222.169922" xlink:href="#DejaVuSans-110"/>
     <use x="285.548828" xlink:href="#DejaVuSans-99"/>
     <use x="340.529297" xlink:href="#DejaVuSans-121"/>
    </g>
   </g>
   <g id="PathCollection_120">
    <defs>
     <path d="M 0 3 
C 0.795609 3 1.55874 2.683901 2.12132 2.12132 
C 2.683901 1.55874 3 0.795609 3 0 
C 3 -0.795609 2.683901 -1.55874 2.12132 -2.12132 
C 1.55874 -2.683901 0.795609 -3 0 -3 
C -0.795609 -3 -1.55874 -2.683901 -2.12132 -2.12132 
C -2.683901 -1.55874 -3 -0.795609 -3 0 
C -3 0.795609 -2.683901 1.55874 -2.12132 2.12132 
C -1.55874 2.683901 -0.795609 3 0 3 
z
" id="m1f1c9df3d7" style="stroke:#ffffff;stroke-width:0.75;"/>
    </defs>
    <g>
     <use style="fill:#4c72b0;stroke:#ffffff;stroke-width:0.75;" x="659.617432" xlink:href="#m1f1c9df3d7" y="314.004203"/>
    </g>
   </g>
   <g id="text_36">
    <!-- $AC50_{p50}$ -->
    <defs>
     <path d="M 36.8125 72.90625 
L 48 72.90625 
L 61.53125 0 
L 51.21875 0 
L 48.1875 18.703125 
L 15.375 18.703125 
L 5.078125 0 
L -5.328125 0 
z
M 40.375 63.1875 
L 19.921875 26.90625 
L 46.6875 26.90625 
z
" id="DejaVuSans-Oblique-65"/>
     <path d="M 69.484375 67.28125 
L 67.484375 56.890625 
Q 62.796875 61.625 57.546875 63.921875 
Q 52.296875 66.21875 46.1875 66.21875 
Q 37.84375 66.21875 31.515625 62.203125 
Q 25.203125 58.203125 20.609375 50 
Q 17.671875 44.734375 16.125 38.84375 
Q 14.59375 32.953125 14.59375 27 
Q 14.59375 17.046875 19.75 11.8125 
Q 24.90625 6.59375 34.71875 6.59375 
Q 41.5 6.59375 47.75 8.765625 
Q 54 10.9375 59.90625 15.28125 
L 57.625 3.609375 
Q 51.8125 1.125 45.875 -0.140625 
Q 39.9375 -1.421875 33.984375 -1.421875 
Q 19.96875 -1.421875 12.078125 6.1875 
Q 4.203125 13.8125 4.203125 27.390625 
Q 4.203125 36.078125 7.203125 44.46875 
Q 10.203125 52.875 15.828125 59.8125 
Q 21.78125 67.1875 29.421875 70.703125 
Q 37.0625 74.21875 47.21875 74.21875 
Q 53.46875 74.21875 59.0625 72.484375 
Q 64.65625 70.75 69.484375 67.28125 
z
" id="DejaVuSans-Oblique-67"/>
    </defs>
    <g style="fill:#262626;" transform="translate(679.417432 316.891703)scale(0.11 -0.11)">
     <use transform="translate(0 0.78125)" xlink:href="#DejaVuSans-Oblique-65"/>
     <use transform="translate(68.408203 0.78125)" xlink:href="#DejaVuSans-Oblique-67"/>
     <use transform="translate(138.232422 0.78125)" xlink:href="#DejaVuSans-53"/>
     <use transform="translate(201.855469 0.78125)" xlink:href="#DejaVuSans-48"/>
     <use transform="translate(266.435547 -15.625)scale(0.7)" xlink:href="#DejaVuSans-Oblique-112"/>
     <use transform="translate(310.869141 -15.625)scale(0.7)" xlink:href="#DejaVuSans-53"/>
     <use transform="translate(355.405273 -15.625)scale(0.7)" xlink:href="#DejaVuSans-48"/>
    </g>
   </g>
   <g id="PathCollection_121">
    <defs>
     <path d="M 0 3 
C 0.795609 3 1.55874 2.683901 2.12132 2.12132 
C 2.683901 1.55874 3 0.795609 3 0 
C 3 -0.795609 2.683901 -1.55874 2.12132 -2.12132 
C 1.55874 -2.683901 0.795609 -3 0 -3 
C -0.795609 -3 -1.55874 -2.683901 -2.12132 -2.12132 
C -2.683901 -1.55874 -3 -0.795609 -3 0 
C -3 0.795609 -2.683901 1.55874 -2.12132 2.12132 
C -1.55874 2.683901 -0.795609 3 0 3 
z
" id="m7955559cf8" style="stroke:#ffffff;stroke-width:0.75;"/>
    </defs>
    <g>
     <use style="fill:#dd8452;stroke:#ffffff;stroke-width:0.75;" x="659.617432" xlink:href="#m7955559cf8" y="331.272484"/>
    </g>
   </g>
   <g id="text_37">
    <!-- $AC50_{p5}$ -->
    <g style="fill:#262626;" transform="translate(679.417432 334.159984)scale(0.11 -0.11)">
     <use transform="translate(0 0.78125)" xlink:href="#DejaVuSans-Oblique-65"/>
     <use transform="translate(68.408203 0.78125)" xlink:href="#DejaVuSans-Oblique-67"/>
     <use transform="translate(138.232422 0.78125)" xlink:href="#DejaVuSans-53"/>
     <use transform="translate(201.855469 0.78125)" xlink:href="#DejaVuSans-48"/>
     <use transform="translate(266.435547 -15.625)scale(0.7)" xlink:href="#DejaVuSans-Oblique-112"/>
     <use transform="translate(310.869141 -15.625)scale(0.7)" xlink:href="#DejaVuSans-53"/>
    </g>
   </g>
   <g id="PathCollection_122">
    <defs>
     <path d="M 0 3 
C 0.795609 3 1.55874 2.683901 2.12132 2.12132 
C 2.683901 1.55874 3 0.795609 3 0 
C 3 -0.795609 2.683901 -1.55874 2.12132 -2.12132 
C 1.55874 -2.683901 0.795609 -3 0 -3 
C -0.795609 -3 -1.55874 -2.683901 -2.12132 -2.12132 
C -2.683901 -1.55874 -3 -0.795609 -3 0 
C -3 0.795609 -2.683901 1.55874 -2.12132 2.12132 
C -1.55874 2.683901 -0.795609 3 0 3 
z
" id="m84c395b557" style="stroke:#ffffff;stroke-width:0.75;"/>
    </defs>
    <g>
     <use style="fill:#55a868;stroke:#ffffff;stroke-width:0.75;" x="659.617432" xlink:href="#m84c395b557" y="348.540766"/>
    </g>
   </g>
   <g id="text_38">
    <!-- $AC50_{p95}$ -->
    <defs>
     <path d="M 10.984375 1.515625 
L 10.984375 10.5 
Q 14.703125 8.734375 18.5 7.8125 
Q 22.3125 6.890625 25.984375 6.890625 
Q 35.75 6.890625 40.890625 13.453125 
Q 46.046875 20.015625 46.78125 33.40625 
Q 43.953125 29.203125 39.59375 26.953125 
Q 35.25 24.703125 29.984375 24.703125 
Q 19.046875 24.703125 12.671875 31.3125 
Q 6.296875 37.9375 6.296875 49.421875 
Q 6.296875 60.640625 12.9375 67.421875 
Q 19.578125 74.21875 30.609375 74.21875 
Q 43.265625 74.21875 49.921875 64.515625 
Q 56.59375 54.828125 56.59375 36.375 
Q 56.59375 19.140625 48.40625 8.859375 
Q 40.234375 -1.421875 26.421875 -1.421875 
Q 22.703125 -1.421875 18.890625 -0.6875 
Q 15.09375 0.046875 10.984375 1.515625 
z
M 30.609375 32.421875 
Q 37.25 32.421875 41.125 36.953125 
Q 45.015625 41.5 45.015625 49.421875 
Q 45.015625 57.28125 41.125 61.84375 
Q 37.25 66.40625 30.609375 66.40625 
Q 23.96875 66.40625 20.09375 61.84375 
Q 16.21875 57.28125 16.21875 49.421875 
Q 16.21875 41.5 20.09375 36.953125 
Q 23.96875 32.421875 30.609375 32.421875 
z
" id="DejaVuSans-57"/>
    </defs>
    <g style="fill:#262626;" transform="translate(679.417432 351.428266)scale(0.11 -0.11)">
     <use transform="translate(0 0.78125)" xlink:href="#DejaVuSans-Oblique-65"/>
     <use transform="translate(68.408203 0.78125)" xlink:href="#DejaVuSans-Oblique-67"/>
     <use transform="translate(138.232422 0.78125)" xlink:href="#DejaVuSans-53"/>
     <use transform="translate(201.855469 0.78125)" xlink:href="#DejaVuSans-48"/>
     <use transform="translate(266.435547 -15.625)scale(0.7)" xlink:href="#DejaVuSans-Oblique-112"/>
     <use transform="translate(310.869141 -15.625)scale(0.7)" xlink:href="#DejaVuSans-57"/>
     <use transform="translate(355.405273 -15.625)scale(0.7)" xlink:href="#DejaVuSans-53"/>
    </g>
   </g>
  </g>
 </g>
 <defs>
  <clipPath id="p3ef1b8b047">
   <rect height="113.4" width="157.178873" x="74.819584" y="129.6"/>
  </clipPath>
  <clipPath id="p6235dc0508">
   <rect height="113.4" width="157.178873" x="279.152119" y="129.6"/>
  </clipPath>
  <clipPath id="p5ed304a8a0">
   <rect height="113.4" width="157.178873" x="483.484653" y="129.6"/>
  </clipPath>
  <clipPath id="p9fe74c7b95">
   <rect height="113.4" width="157.178873" x="74.819584" y="299.7"/>
  </clipPath>
  <clipPath id="pee475c431e">
   <rect height="113.4" width="157.178873" x="279.152119" y="299.7"/>
  </clipPath>
  <clipPath id="p9ad94250b8">
   <rect height="113.4" width="157.178873" x="483.484653" y="299.7"/>
  </clipPath>
  <clipPath id="p988fdc7da4">
   <rect height="113.4" width="157.178873" x="74.819584" y="469.8"/>
  </clipPath>
  <clipPath id="pa69b108329">
   <rect height="113.4" width="157.178873" x="279.152119" y="469.8"/>
  </clipPath>
  <clipPath id="p35fca358e7">
   <rect height="113.4" width="157.178873" x="483.484653" y="469.8"/>
  </clipPath>
 </defs>
</svg>
